STARTFONT 2.1
COMMENT
COMMENT Converted from OpenType font "Q:\font stuff\winfont\TeutonWeiss-Bold.otf" by "otf2bdf 3.0".
COMMENT
FONT -FreeType-Teuton Weiss-Bold-R-Normal--34-340-72-72-P-118-ISO10646-1
SIZE 34 72 72
FONTBOUNDINGBOX 30 37 -2 -8
STARTPROPERTIES 19
FOUNDRY "FreeType"
FAMILY_NAME "Teuton Weiss"
WEIGHT_NAME "Bold"
SLANT "R"
SETWIDTH_NAME "Normal"
ADD_STYLE_NAME ""
PIXEL_SIZE 34
POINT_SIZE 340
RESOLUTION_X 72
RESOLUTION_Y 72
SPACING "P"
AVERAGE_WIDTH 118
CHARSET_REGISTRY "ISO10646"
CHARSET_ENCODING "1"
FONT_ASCENT 28
FONT_DESCENT 7
COPYRIGHT "Copyright Copr. 2001, Frantisek Storm, www.stormtype.com. All rights reserved."
_OTF_FONTFILE "Q:\font stuff\winfont\TeutonWeiss-Bold.otf"
_OTF_PSNAME "TeutonWeiss-Bold"
ENDPROPERTIES
CHARS 356
STARTCHAR 0020
ENCODING 32
SWIDTH 264 0
DWIDTH 9 0
BBX 0 0 0 0
BITMAP
ENDCHAR
STARTCHAR 0021
ENCODING 33
SWIDTH 205 0
DWIDTH 7 0
BBX 2 24 2 0
BITMAP
C0
C0
C0
C0
C0
C0
C0
C0
C0
C0
C0
C0
C0
C0
C0
C0
C0
C0
C0
00
00
C0
C0
C0
ENDCHAR
STARTCHAR 0022
ENCODING 34
SWIDTH 294 0
DWIDTH 10 0
BBX 6 6 2 18
BITMAP
CC
CC
CC
CC
CC
CC
ENDCHAR
STARTCHAR 0023
ENCODING 35
SWIDTH 500 0
DWIDTH 17 0
BBX 15 24 1 0
BITMAP
060C
060C
060C
0E1C
0C1C
0C18
0C18
7FFE
7FFE
1C38
1830
1830
1830
1830
1830
3870
FFFC
FFFC
3060
3060
3060
70E0
60C0
60C0
ENDCHAR
STARTCHAR 0024
ENCODING 36
SWIDTH 411 0
DWIDTH 14 0
BBX 10 23 2 1
BITMAP
0C00
0C00
0C00
7FC0
FFC0
C000
C000
C000
F000
3800
1E00
0780
03C0
00C0
00C0
00C0
00C0
FFC0
FF80
0C00
0C00
0C00
0C00
ENDCHAR
STARTCHAR 0025
ENCODING 37
SWIDTH 588 0
DWIDTH 20 0
BBX 17 24 2 0
BITMAP
7C0600
FE0E00
C60C00
C61C00
C61800
C63800
C63000
C67000
C66000
C6E000
FEC000
7DC000
019E00
03BF80
036380
076180
066180
066180
0C6180
0C6180
186180
186180
307F80
303F00
ENDCHAR
STARTCHAR 0026
ENCODING 38
SWIDTH 647 0
DWIDTH 22 0
BBX 17 24 3 0
BITMAP
7FF000
FFF000
E00000
C00000
C00000
C00000
C00000
C00000
401800
7FFF80
FFFF80
C01800
C01800
C01800
C01800
C01800
C01800
C01800
C01800
C01800
C01800
E01800
FF9F80
7F8F80
ENDCHAR
STARTCHAR 0027
ENCODING 39
SWIDTH 205 0
DWIDTH 7 0
BBX 2 5 2 18
BITMAP
C0
C0
C0
C0
C0
ENDCHAR
STARTCHAR 0028
ENCODING 40
SWIDTH 323 0
DWIDTH 11 0
BBX 6 31 3 -7
BITMAP
1C
7C
70
C0
C0
C0
C0
C0
C0
C0
C0
C0
C0
C0
C0
C0
C0
C0
C0
C0
C0
C0
C0
C0
C0
C0
C0
C0
F0
7C
1C
ENDCHAR
STARTCHAR 0029
ENCODING 41
SWIDTH 323 0
DWIDTH 11 0
BBX 6 31 2 -7
BITMAP
E0
F8
3C
0C
0C
0C
0C
0C
0C
0C
0C
0C
0C
0C
0C
0C
0C
0C
0C
0C
0C
0C
0C
0C
0C
0C
0C
0C
3C
F8
E0
ENDCHAR
STARTCHAR 002A
ENCODING 42
SWIDTH 441 0
DWIDTH 15 0
BBX 11 10 2 13
BITMAP
0400
0400
0400
C460
F5E0
1F00
0E00
1B00
3180
3180
ENDCHAR
STARTCHAR 002B
ENCODING 43
SWIDTH 470 0
DWIDTH 16 0
BBX 12 12 2 3
BITMAP
0600
0600
0600
0600
0600
FFF0
FFF0
0600
0600
0600
0600
0600
ENDCHAR
STARTCHAR 002C
ENCODING 44
SWIDTH 205 0
DWIDTH 7 0
BBX 3 8 1 -5
BITMAP
60
60
60
60
60
C0
C0
C0
ENDCHAR
STARTCHAR 002D
ENCODING 45
SWIDTH 294 0
DWIDTH 10 0
BBX 7 2 2 8
BITMAP
FE
FE
ENDCHAR
STARTCHAR 002E
ENCODING 46
SWIDTH 205 0
DWIDTH 7 0
BBX 2 3 2 0
BITMAP
C0
C0
C0
ENDCHAR
STARTCHAR 002F
ENCODING 47
SWIDTH 441 0
DWIDTH 15 0
BBX 15 31 0 -7
BITMAP
000E
001C
001C
0018
0038
0038
0030
0070
0060
00E0
00E0
00C0
01C0
0180
0380
0380
0300
0700
0700
0E00
0E00
0C00
1C00
1C00
3800
3800
3000
7000
7000
6000
E000
ENDCHAR
STARTCHAR 0030
ENCODING 48
SWIDTH 529 0
DWIDTH 18 0
BBX 12 24 3 0
BITMAP
7FE0
FFF0
E070
C030
C030
C030
C030
C030
C030
C030
C030
C030
C030
C030
C030
C030
C030
C030
C030
C030
C030
E070
FFF0
7FE0
ENDCHAR
STARTCHAR 0031
ENCODING 49
SWIDTH 529 0
DWIDTH 18 0
BBX 11 24 3 1
BITMAP
0200
0E00
1E00
7E00
F600
C600
8600
0600
0600
0600
0600
0600
0600
0600
0600
0600
0600
0600
0600
0600
0600
0600
7FE0
7FE0
ENDCHAR
STARTCHAR 0032
ENCODING 50
SWIDTH 529 0
DWIDTH 18 0
BBX 12 24 3 0
BITMAP
FFE0
FFF0
0070
0030
0030
0030
0030
0070
00E0
01C0
0780
0F00
1C00
3800
7000
E000
C000
C000
C000
C000
C000
C000
FFF0
FFF0
ENDCHAR
STARTCHAR 0033
ENCODING 51
SWIDTH 529 0
DWIDTH 18 0
BBX 12 24 3 0
BITMAP
FFE0
FFF0
0070
0030
0030
0030
0030
0030
0030
0070
3FE0
3FE0
0070
0030
0030
0030
0030
0030
0030
0030
0030
0070
FFF0
FFE0
ENDCHAR
STARTCHAR 0034
ENCODING 52
SWIDTH 529 0
DWIDTH 18 0
BBX 15 23 2 1
BITMAP
00E0
00E0
01E0
03E0
0360
0660
0660
0C60
0C60
1860
3860
3060
6060
6060
C060
FFFE
FFFE
0060
0060
0060
0060
0060
0060
ENDCHAR
STARTCHAR 0035
ENCODING 53
SWIDTH 529 0
DWIDTH 18 0
BBX 12 24 3 0
BITMAP
FFF0
FFF0
C000
C000
C000
C000
C000
C000
C000
C000
FFE0
FFF0
0070
0030
0030
0030
0030
0030
0030
0030
0030
0070
FFF0
FFE0
ENDCHAR
STARTCHAR 0036
ENCODING 54
SWIDTH 529 0
DWIDTH 18 0
BBX 12 24 3 0
BITMAP
7FF0
FFF0
E000
C000
C000
C000
C000
C000
C000
C000
FFE0
FFF0
C070
C030
C030
C030
C030
C030
C030
C030
C030
E070
FFF0
7FE0
ENDCHAR
STARTCHAR 0037
ENCODING 55
SWIDTH 529 0
DWIDTH 18 0
BBX 13 24 2 0
BITMAP
FFF8
FFF8
0038
0030
0030
0070
0060
0060
00E0
00C0
00C0
01C0
0180
0380
0380
0300
0700
0600
0600
0E00
0C00
0C00
1C00
1800
ENDCHAR
STARTCHAR 0038
ENCODING 56
SWIDTH 529 0
DWIDTH 18 0
BBX 12 24 3 0
BITMAP
7FE0
FFF0
C070
C030
C030
C030
C030
C030
C030
C070
7FE0
7FE0
E070
C030
C030
C030
C030
C030
C030
C030
C030
E070
FFF0
7FE0
ENDCHAR
STARTCHAR 0039
ENCODING 57
SWIDTH 529 0
DWIDTH 18 0
BBX 11 24 3 0
BITMAP
7FC0
FFE0
E0E0
C060
C060
C060
C060
C060
C060
C060
C060
FFE0
7FE0
0060
0060
0060
0060
0060
0060
0060
0060
00E0
FFE0
FFC0
ENDCHAR
STARTCHAR 003A
ENCODING 58
SWIDTH 205 0
DWIDTH 7 0
BBX 2 17 2 0
BITMAP
C0
C0
C0
00
00
00
00
00
00
00
00
00
00
00
C0
C0
C0
ENDCHAR
STARTCHAR 003B
ENCODING 59
SWIDTH 205 0
DWIDTH 7 0
BBX 3 22 1 -5
BITMAP
60
60
60
00
00
00
00
00
00
00
00
00
00
00
60
60
60
60
60
C0
C0
C0
ENDCHAR
STARTCHAR 003C
ENCODING 60
SWIDTH 470 0
DWIDTH 16 0
BBX 12 14 2 4
BITMAP
0030
0070
01C0
0780
1E00
7800
F000
F000
7800
1E00
0780
01E0
00F0
0030
ENDCHAR
STARTCHAR 003D
ENCODING 61
SWIDTH 470 0
DWIDTH 16 0
BBX 12 9 2 6
BITMAP
FFF0
FFF0
0000
0000
0000
0000
0000
FFF0
FFF0
ENDCHAR
STARTCHAR 003E
ENCODING 62
SWIDTH 470 0
DWIDTH 16 0
BBX 12 14 2 4
BITMAP
C000
E000
7800
1E00
0780
03E0
00F0
0070
01E0
0780
1E00
3800
E000
C000
ENDCHAR
STARTCHAR 003F
ENCODING 63
SWIDTH 411 0
DWIDTH 14 0
BBX 10 24 2 0
BITMAP
FF80
FFC0
01C0
00C0
00C0
00C0
01C0
0380
0700
0E00
0C00
1800
1800
1800
1800
1800
1800
1800
1800
0000
0000
1800
1800
1800
ENDCHAR
STARTCHAR 0040
ENCODING 64
SWIDTH 735 0
DWIDTH 25 0
BBX 20 24 3 -4
BITMAP
7FF800
FFFC00
C00C00
C00C00
C00C00
C00C00
C3FC30
C7FC30
C60C30
C60C30
C60C30
C60C30
C60C30
C60C30
C60C30
C7FC30
C3FC30
C00030
C00030
C00030
C00030
E00070
FFFFF0
7FFFE0
ENDCHAR
STARTCHAR 0041
ENCODING 65
SWIDTH 500 0
DWIDTH 17 0
BBX 16 24 0 0
BITMAP
03C0
03C0
03C0
03E0
07E0
0660
0660
0E70
0C70
0C30
0C30
1C38
1838
1818
1818
381C
3FFC
3FFC
700E
700E
700E
6006
E007
E007
ENDCHAR
STARTCHAR 0042
ENCODING 66
SWIDTH 558 0
DWIDTH 19 0
BBX 13 24 3 0
BITMAP
FFF0
FFF8
C038
C018
C018
C018
C018
C018
C018
C018
FFF8
FFF8
C038
C018
C018
C018
C018
C018
C018
C018
C018
C038
FFF0
FFF0
ENDCHAR
STARTCHAR 0043
ENCODING 67
SWIDTH 470 0
DWIDTH 16 0
BBX 12 24 3 0
BITMAP
7FF0
FFF0
E000
C000
C000
C000
C000
C000
C000
C000
C000
C000
C000
C000
C000
C000
C000
C000
C000
C000
C000
E000
FFF0
7FF0
ENDCHAR
STARTCHAR 0044
ENCODING 68
SWIDTH 558 0
DWIDTH 19 0
BBX 13 24 3 0
BITMAP
FFF0
FFF8
C038
C018
C018
C018
C018
C018
C018
C018
C018
C018
C018
C018
C018
C018
C018
C018
C018
C018
C018
C038
FFF8
FFF0
ENDCHAR
STARTCHAR 0045
ENCODING 69
SWIDTH 470 0
DWIDTH 16 0
BBX 12 24 3 0
BITMAP
FFF0
FFF0
C000
C000
C000
C000
C000
C000
C000
C000
FFC0
FFC0
C000
C000
C000
C000
C000
C000
C000
C000
C000
C000
FFF0
FFF0
ENDCHAR
STARTCHAR 0046
ENCODING 70
SWIDTH 441 0
DWIDTH 15 0
BBX 12 24 3 0
BITMAP
FFF0
FFF0
C000
C000
C000
C000
C000
C000
C000
C000
FFC0
FFC0
C000
C000
C000
C000
C000
C000
C000
C000
C000
C000
C000
C000
ENDCHAR
STARTCHAR 0047
ENCODING 71
SWIDTH 558 0
DWIDTH 19 0
BBX 13 24 3 0
BITMAP
7FF8
FFF8
E000
C000
C000
C000
C000
C000
C000
C000
C3F8
C3F8
C018
C018
C018
C018
C018
C018
C018
C018
C018
E038
FFF8
7FF0
ENDCHAR
STARTCHAR 0048
ENCODING 72
SWIDTH 558 0
DWIDTH 19 0
BBX 13 24 3 1
BITMAP
C018
C018
C018
C018
C018
C018
C018
C018
C018
C018
FFF8
FFF8
C018
C018
C018
C018
C018
C018
C018
C018
C018
C018
C018
C018
ENDCHAR
STARTCHAR 0049
ENCODING 73
SWIDTH 235 0
DWIDTH 8 0
BBX 2 24 3 0
BITMAP
C0
C0
C0
C0
C0
C0
C0
C0
C0
C0
C0
C0
C0
C0
C0
C0
C0
C0
C0
C0
C0
C0
C0
C0
ENDCHAR
STARTCHAR 004A
ENCODING 74
SWIDTH 323 0
DWIDTH 11 0
BBX 8 24 0 0
BITMAP
03
03
03
03
03
03
03
03
03
03
03
03
03
03
03
03
03
03
03
03
03
07
FF
FE
ENDCHAR
STARTCHAR 004B
ENCODING 75
SWIDTH 529 0
DWIDTH 18 0
BBX 14 24 3 1
BITMAP
C038
C038
C070
C070
C060
C0E0
C0C0
C1C0
C180
C380
FF00
FF00
C380
C180
C1C0
C0C0
C0E0
C0E0
C070
C070
C030
C038
C038
C01C
ENDCHAR
STARTCHAR 004C
ENCODING 76
SWIDTH 470 0
DWIDTH 16 0
BBX 12 24 3 0
BITMAP
C000
C000
C000
C000
C000
C000
C000
C000
C000
C000
C000
C000
C000
C000
C000
C000
C000
C000
C000
C000
C000
C000
FFF0
FFF0
ENDCHAR
STARTCHAR 004D
ENCODING 77
SWIDTH 647 0
DWIDTH 22 0
BBX 16 24 3 0
BITMAP
E007
F00F
F00F
F00F
F81F
D81B
D81B
DC3B
CC33
CC33
CE33
C663
C663
C763
C3C3
C3C3
C3C3
C183
C003
C003
C003
C003
C003
C003
ENDCHAR
STARTCHAR 004E
ENCODING 78
SWIDTH 558 0
DWIDTH 19 0
BBX 13 24 3 0
BITMAP
E018
E018
E018
F018
F018
F818
D818
DC18
CC18
CE18
C618
C618
C718
C318
C398
C198
C1D8
C0D8
C0D8
C078
C078
C078
C038
C038
ENDCHAR
STARTCHAR 004F
ENCODING 79
SWIDTH 558 0
DWIDTH 19 0
BBX 13 24 3 0
BITMAP
7FF0
FFF8
E038
C018
C018
C018
C018
C018
C018
C018
C018
C018
C018
C018
C018
C018
C018
C018
C018
C018
C018
E038
FFF8
7FF0
ENDCHAR
STARTCHAR 0050
ENCODING 80
SWIDTH 529 0
DWIDTH 18 0
BBX 13 24 3 0
BITMAP
FFF0
FFF8
C038
C018
C018
C018
C018
C018
C018
C018
C018
FFF8
FFF0
C000
C000
C000
C000
C000
C000
C000
C000
C000
C000
C000
ENDCHAR
STARTCHAR 0051
ENCODING 81
SWIDTH 558 0
DWIDTH 19 0
BBX 13 31 3 -7
BITMAP
7FF0
FFF8
E038
C018
C018
C018
C018
C018
C018
C018
C018
C018
C018
C018
C018
C018
C018
C018
C618
C218
C318
E338
FFF8
7FF0
0180
00C0
00C0
00C0
0060
0060
0060
ENDCHAR
STARTCHAR 0052
ENCODING 82
SWIDTH 558 0
DWIDTH 19 0
BBX 14 24 3 0
BITMAP
FFF0
FFF8
C038
C018
C018
C018
C018
C018
C018
C018
C038
FFF8
FFF0
C0C0
C0E0
C060
C060
C070
C030
C038
C038
C018
C01C
C01C
ENDCHAR
STARTCHAR 0053
ENCODING 83
SWIDTH 500 0
DWIDTH 17 0
BBX 12 24 2 0
BITMAP
7FF0
FFF0
E000
C000
C000
C000
C000
E000
7000
3800
1C00
0F00
0780
03C0
00E0
0070
0030
0030
0030
0030
0030
0070
FFF0
FFE0
ENDCHAR
STARTCHAR 0054
ENCODING 84
SWIDTH 470 0
DWIDTH 16 0
BBX 14 24 1 0
BITMAP
FFFC
FFFC
0300
0300
0300
0300
0300
0300
0300
0300
0300
0300
0300
0300
0300
0300
0300
0300
0300
0300
0300
0300
0300
0300
ENDCHAR
STARTCHAR 0055
ENCODING 85
SWIDTH 558 0
DWIDTH 19 0
BBX 13 24 3 0
BITMAP
C018
C018
C018
C018
C018
C018
C018
C018
C018
C018
C018
C018
C018
C018
C018
C018
C018
C018
C018
C018
C018
E038
FFF8
7FF0
ENDCHAR
STARTCHAR 0056
ENCODING 86
SWIDTH 500 0
DWIDTH 17 0
BBX 16 24 0 0
BITMAP
E007
E007
6006
6006
700E
700E
300C
300C
381C
3818
1818
1C18
1C38
0C30
0C30
0E30
0E70
0660
0660
07E0
07C0
03C0
03C0
03C0
ENDCHAR
STARTCHAR 0057
ENCODING 87
SWIDTH 764 0
DWIDTH 26 0
BBX 25 24 1 0
BITMAP
E01C0380
E01C0380
601C0300
601C0300
701E0300
70360700
70360600
30360600
30360600
38370E00
38630E00
18630C00
18630C00
1C630C00
1CC39C00
0CC19800
0CC19800
0CC19800
0EC1B800
0781F000
0780F000
0780F000
0780F000
0780E000
ENDCHAR
STARTCHAR 0058
ENCODING 88
SWIDTH 529 0
DWIDTH 18 0
BBX 18 24 0 0
BITMAP
700380
380700
380700
1C0E00
1C0C00
0E1C00
061800
073800
033000
03F000
01E000
01E000
01E000
03F000
033000
073800
0E1C00
0E1C00
1C0E00
180E00
380700
700380
700380
E001C0
ENDCHAR
STARTCHAR 0059
ENCODING 89
SWIDTH 529 0
DWIDTH 18 0
BBX 17 24 0 0
BITMAP
E00180
700380
700700
380700
180E00
1C0E00
0C1C00
0E1800
073800
073000
03F000
01E000
01E000
00C000
00C000
00C000
00C000
00C000
00C000
00C000
00C000
00C000
00C000
00C000
ENDCHAR
STARTCHAR 005A
ENCODING 90
SWIDTH 500 0
DWIDTH 17 0
BBX 14 24 2 0
BITMAP
FFFC
FFFC
0018
0038
0030
0070
0060
00E0
00C0
01C0
0180
0380
0300
0600
0E00
0C00
1C00
1800
3800
3000
7000
6000
FFFC
FFFC
ENDCHAR
STARTCHAR 005B
ENCODING 91
SWIDTH 382 0
DWIDTH 13 0
BBX 7 31 3 -7
BITMAP
FE
FE
C0
C0
C0
C0
C0
C0
C0
C0
C0
C0
C0
C0
C0
C0
C0
C0
C0
C0
C0
C0
C0
C0
C0
C0
C0
C0
C0
FE
FE
ENDCHAR
STARTCHAR 005C
ENCODING 92
SWIDTH 411 0
DWIDTH 14 0
BBX 14 24 0 0
BITMAP
E000
6000
7000
3000
3800
1800
1C00
0C00
0E00
0600
0700
0300
0380
0180
01C0
00C0
00E0
0060
0070
0030
0038
0018
001C
000C
ENDCHAR
STARTCHAR 005D
ENCODING 93
SWIDTH 352 0
DWIDTH 12 0
BBX 7 31 2 -7
BITMAP
FE
FE
06
06
06
06
06
06
06
06
06
06
06
06
06
06
06
06
06
06
06
06
06
06
06
06
06
06
06
FE
FE
ENDCHAR
STARTCHAR 005E
ENCODING 94
SWIDTH 352 0
DWIDTH 12 0
BBX 12 9 0 14
BITMAP
0600
0600
0F00
1980
1980
30C0
20C0
6060
C030
ENDCHAR
STARTCHAR 005F
ENCODING 95
SWIDTH 735 0
DWIDTH 25 0
BBX 21 2 2 -4
BITMAP
FFFFF8
FFFFF8
ENDCHAR
STARTCHAR 0060
ENCODING 96
SWIDTH 323 0
DWIDTH 11 0
BBX 6 5 3 19
BITMAP
E0
60
30
18
0C
ENDCHAR
STARTCHAR 0061
ENCODING 97
SWIDTH 470 0
DWIDTH 16 0
BBX 11 17 2 0
BITMAP
FFC0
FFE0
0060
0060
0060
0060
3FE0
7FE0
E060
C060
C060
C060
C060
C060
E060
FFE0
7FE0
ENDCHAR
STARTCHAR 0062
ENCODING 98
SWIDTH 470 0
DWIDTH 16 0
BBX 11 24 2 0
BITMAP
C000
C000
C000
C000
C000
C000
C000
FFC0
FFE0
C060
C060
C060
C060
C060
C060
C060
C060
C060
C060
C060
C060
C060
FFE0
FFC0
ENDCHAR
STARTCHAR 0063
ENCODING 99
SWIDTH 382 0
DWIDTH 13 0
BBX 10 17 2 0
BITMAP
7FC0
FFC0
E000
C000
C000
C000
C000
C000
C000
C000
C000
C000
C000
C000
E000
FFC0
7FC0
ENDCHAR
STARTCHAR 0064
ENCODING 100
SWIDTH 470 0
DWIDTH 16 0
BBX 11 24 2 0
BITMAP
0060
0060
0060
0060
0060
0060
0060
7FE0
FFE0
E060
C060
C060
C060
C060
C060
C060
C060
C060
C060
C060
C060
E060
FFE0
7FE0
ENDCHAR
STARTCHAR 0065
ENCODING 101
SWIDTH 441 0
DWIDTH 15 0
BBX 11 17 2 0
BITMAP
3FC0
FFE0
C060
C060
C060
C060
FFE0
FFE0
C000
C000
C000
C000
C000
C000
E000
FFE0
7FE0
ENDCHAR
STARTCHAR 0066
ENCODING 102
SWIDTH 264 0
DWIDTH 9 0
BBX 7 24 2 0
BITMAP
7E
FE
E0
C0
C0
C0
C0
FE
FE
C0
C0
C0
C0
C0
C0
C0
C0
C0
C0
C0
C0
C0
C0
C0
ENDCHAR
STARTCHAR 0067
ENCODING 103
SWIDTH 470 0
DWIDTH 16 0
BBX 11 24 2 -7
BITMAP
7FE0
FFE0
E060
C060
C060
C060
C060
C060
C060
C060
C060
C060
C060
C060
E060
FFE0
7FE0
0060
0060
0060
0060
0060
FFE0
FFC0
ENDCHAR
STARTCHAR 0068
ENCODING 104
SWIDTH 470 0
DWIDTH 16 0
BBX 11 24 2 0
BITMAP
C000
C000
C000
C000
C000
C000
C000
FFC0
FFE0
C060
C060
C060
C060
C060
C060
C060
C060
C060
C060
C060
C060
C060
C060
C060
ENDCHAR
STARTCHAR 0069
ENCODING 105
SWIDTH 205 0
DWIDTH 7 0
BBX 2 22 2 0
BITMAP
C0
C0
C0
00
00
C0
C0
C0
C0
C0
C0
C0
C0
C0
C0
C0
C0
C0
C0
C0
C0
C0
ENDCHAR
STARTCHAR 006A
ENCODING 106
SWIDTH 205 0
DWIDTH 7 0
BBX 3 29 1 -8
BITMAP
60
60
60
00
00
60
60
60
60
60
60
60
60
60
60
60
60
60
60
60
60
60
60
60
60
60
60
E0
C0
ENDCHAR
STARTCHAR 006B
ENCODING 107
SWIDTH 441 0
DWIDTH 15 0
BBX 11 23 2 1
BITMAP
C000
C000
C000
C000
C000
C000
C060
C0E0
C0C0
C1C0
C180
C380
C300
FF00
FF00
C300
C380
C180
C1C0
C0C0
C0E0
C0E0
C060
ENDCHAR
STARTCHAR 006C
ENCODING 108
SWIDTH 205 0
DWIDTH 7 0
BBX 2 24 2 0
BITMAP
C0
C0
C0
C0
C0
C0
C0
C0
C0
C0
C0
C0
C0
C0
C0
C0
C0
C0
C0
C0
C0
C0
C0
C0
ENDCHAR
STARTCHAR 006D
ENCODING 109
SWIDTH 676 0
DWIDTH 23 0
BBX 18 17 2 0
BITMAP
FF3F80
FFFFC0
C0E0C0
C0C0C0
C0C0C0
C0C0C0
C0C0C0
C0C0C0
C0C0C0
C0C0C0
C0C0C0
C0C0C0
C0C0C0
C0C0C0
C0C0C0
C0C0C0
C0C0C0
ENDCHAR
STARTCHAR 006E
ENCODING 110
SWIDTH 470 0
DWIDTH 16 0
BBX 11 17 2 0
BITMAP
FFC0
FFE0
C060
C060
C060
C060
C060
C060
C060
C060
C060
C060
C060
C060
C060
C060
C060
ENDCHAR
STARTCHAR 006F
ENCODING 111
SWIDTH 470 0
DWIDTH 16 0
BBX 11 17 2 0
BITMAP
7FC0
FFE0
E060
C060
C060
C060
C060
C060
C060
C060
C060
C060
C060
C060
E060
FFE0
7FC0
ENDCHAR
STARTCHAR 0070
ENCODING 112
SWIDTH 470 0
DWIDTH 16 0
BBX 11 24 2 -7
BITMAP
FFC0
FFE0
C060
C060
C060
C060
C060
C060
C060
C060
C060
C060
C060
C060
C060
FFE0
FFC0
C000
C000
C000
C000
C000
C000
C000
ENDCHAR
STARTCHAR 0071
ENCODING 113
SWIDTH 470 0
DWIDTH 16 0
BBX 11 24 2 -7
BITMAP
7FE0
FFE0
E060
C060
C060
C060
C060
C060
C060
C060
C060
C060
C060
C060
E060
FFE0
7FE0
0060
0060
0060
0060
0060
0060
0060
ENDCHAR
STARTCHAR 0072
ENCODING 114
SWIDTH 294 0
DWIDTH 10 0
BBX 7 17 2 0
BITMAP
DE
FE
E0
C0
C0
C0
C0
C0
C0
C0
C0
C0
C0
C0
C0
C0
C0
ENDCHAR
STARTCHAR 0073
ENCODING 115
SWIDTH 411 0
DWIDTH 14 0
BBX 10 17 2 0
BITMAP
7FC0
FFC0
C000
C000
C000
E000
7000
3C00
1E00
0780
03C0
00C0
00C0
00C0
00C0
FFC0
FF80
ENDCHAR
STARTCHAR 0074
ENCODING 116
SWIDTH 294 0
DWIDTH 10 0
BBX 7 21 2 1
BITMAP
C0
C0
C0
C0
FE
FE
C0
C0
C0
C0
C0
C0
C0
C0
C0
C0
C0
C0
E0
FE
7E
ENDCHAR
STARTCHAR 0075
ENCODING 117
SWIDTH 470 0
DWIDTH 16 0
BBX 11 17 2 0
BITMAP
C060
C060
C060
C060
C060
C060
C060
C060
C060
C060
C060
C060
C060
C060
E060
FFE0
7FE0
ENDCHAR
STARTCHAR 0076
ENCODING 118
SWIDTH 411 0
DWIDTH 14 0
BBX 13 17 0 0
BITMAP
E038
E038
6030
7030
7070
3060
3060
38E0
18C0
18C0
18C0
1DC0
0D80
0D80
0F80
0700
0700
ENDCHAR
STARTCHAR 0077
ENCODING 119
SWIDTH 647 0
DWIDTH 22 0
BBX 20 17 1 0
BITMAP
E06070
E07070
60F060
60F060
70F0E0
70F0E0
3098C0
3198C0
3998C0
399980
199980
190D80
1F0D80
0F0F00
0F0F00
0F0F00
0E0700
ENDCHAR
STARTCHAR 0078
ENCODING 120
SWIDTH 441 0
DWIDTH 15 0
BBX 13 17 1 0
BITMAP
E038
7030
3060
38E0
18C0
1DC0
0D80
0700
0700
0700
0D80
1DC0
18C0
38E0
3070
7070
E038
ENDCHAR
STARTCHAR 0079
ENCODING 121
SWIDTH 411 0
DWIDTH 14 0
BBX 13 24 0 -7
BITMAP
E038
E038
6030
7030
7070
3060
3060
38E0
18C0
18C0
18C0
1DC0
0D80
0D80
0F80
0700
0700
0700
0600
0600
0E00
0C00
0C00
1C00
ENDCHAR
STARTCHAR 007A
ENCODING 122
SWIDTH 411 0
DWIDTH 14 0
BBX 11 17 1 0
BITMAP
FFE0
FFE0
00C0
01C0
0180
0300
0300
0600
0E00
0C00
1800
1800
3000
7000
6000
FFE0
FFE0
ENDCHAR
STARTCHAR 007B
ENCODING 123
SWIDTH 323 0
DWIDTH 11 0
BBX 8 31 1 -7
BITMAP
07
1F
3C
30
30
30
30
30
30
30
30
30
30
70
E0
E0
70
30
30
30
30
30
30
30
30
30
30
30
3C
1F
07
ENDCHAR
STARTCHAR 007C
ENCODING 124
SWIDTH 205 0
DWIDTH 7 0
BBX 2 31 3 -7
BITMAP
C0
C0
C0
C0
C0
C0
C0
C0
C0
C0
C0
C0
C0
C0
C0
C0
C0
C0
C0
C0
C0
C0
C0
C0
C0
C0
C0
C0
C0
C0
C0
ENDCHAR
STARTCHAR 007D
ENCODING 125
SWIDTH 323 0
DWIDTH 11 0
BBX 8 31 2 -7
BITMAP
E0
F8
3C
0C
0C
0C
0C
0C
0C
0C
0C
0C
0C
0E
07
07
0E
0C
0C
0C
0C
0C
0C
0C
0C
0C
0C
0C
1C
F8
E0
ENDCHAR
STARTCHAR 007E
ENCODING 126
SWIDTH 470 0
DWIDTH 16 0
BBX 14 5 1 14
BITMAP
3C0C
7E0C
E78C
C1F8
C0F8
ENDCHAR
STARTCHAR 00A0
ENCODING 160
SWIDTH 264 0
DWIDTH 9 0
BBX 0 0 0 0
BITMAP
ENDCHAR
STARTCHAR 00A1
ENCODING 161
SWIDTH 205 0
DWIDTH 7 0
BBX 2 24 2 -7
BITMAP
C0
C0
C0
00
00
C0
C0
C0
C0
C0
C0
C0
C0
C0
C0
C0
C0
C0
C0
C0
C0
C0
C0
C0
ENDCHAR
STARTCHAR 00A2
ENCODING 162
SWIDTH 382 0
DWIDTH 13 0
BBX 9 23 2 1
BITMAP
0C00
0C00
0C00
7F80
FF80
C000
C000
C000
C000
C000
C000
C000
C000
C000
C000
C000
C000
C000
FF80
7F80
0C00
0C00
0C00
ENDCHAR
STARTCHAR 00A3
ENCODING 163
SWIDTH 470 0
DWIDTH 16 0
BBX 13 24 2 0
BITMAP
3F80
7F80
7000
6000
6000
6000
6000
6000
6000
6000
6000
FF00
FF00
6000
6000
6000
6000
6000
6000
6000
6000
6000
7FF8
7FF8
ENDCHAR
STARTCHAR 00A4
ENCODING 164
SWIDTH 500 0
DWIDTH 17 0
BBX 16 24 1 1
BITMAP
C006
E00E
600C
701C
3FF8
3FF8
3838
3018
3018
3018
3018
3018
3018
3018
3018
3018
3018
3818
3FF8
3FF8
701C
600C
E006
C007
ENDCHAR
STARTCHAR 00A5
ENCODING 165
SWIDTH 529 0
DWIDTH 18 0
BBX 17 24 0 1
BITMAP
E00380
700380
700700
380700
1C0E00
1C0C00
0E1C00
0E1800
073800
033000
03F000
01E000
01E000
00C000
00C000
07F800
07F800
00C000
00C000
00C000
00C000
00C000
00C000
00C000
ENDCHAR
STARTCHAR 00A7
ENCODING 167
SWIDTH 441 0
DWIDTH 15 0
BBX 11 31 2 -7
BITMAP
7FE0
FFE0
C000
C000
C000
C000
E000
F800
DC00
CE00
C700
C3C0
C0E0
C060
C060
C060
C060
E060
7860
1C60
0E60
0760
03E0
00E0
0060
0060
0060
0060
0060
FFE0
FFC0
ENDCHAR
STARTCHAR 00A8
ENCODING 168
SWIDTH 352 0
DWIDTH 12 0
BBX 7 2 3 21
BITMAP
C6
C6
ENDCHAR
STARTCHAR 00A9
ENCODING 169
SWIDTH 676 0
DWIDTH 23 0
BBX 17 24 3 0
BITMAP
7FFF00
FFFF80
C00180
C00180
C7F980
CFF980
CC0180
CC0180
CC0180
CC0180
CC0180
CC0180
CC0180
CC0180
CC0180
CC0180
CC0180
CC0180
CFF980
CFF980
C00180
C00180
FFFF80
7FFF00
ENDCHAR
STARTCHAR 00AA
ENCODING 170
SWIDTH 470 0
DWIDTH 16 0
BBX 11 24 2 0
BITMAP
FFC0
FFE0
0060
0060
0060
0060
3FE0
7FE0
E060
C060
C060
C060
C060
C060
E060
FFE0
7FE0
0000
0000
0000
0000
0000
FFE0
FFE0
ENDCHAR
STARTCHAR 00AB
ENCODING 171
SWIDTH 588 0
DWIDTH 20 0
BBX 18 14 1 3
BITMAP
0180C0
0381C0
070780
1E0E00
381C00
707800
E07000
E07000
707800
3C1C00
1E0F00
070380
0381C0
0080C0
ENDCHAR
STARTCHAR 00AC
ENCODING 172
SWIDTH 470 0
DWIDTH 16 0
BBX 12 11 2 0
BITMAP
FFF0
FFF0
0030
0030
0030
0030
0030
0030
0030
0030
0030
ENDCHAR
STARTCHAR 00AE
ENCODING 174
SWIDTH 676 0
DWIDTH 23 0
BBX 17 24 3 0
BITMAP
7FFF00
FFFF80
C00180
CFF180
CFF980
CC1980
CC1980
CC1980
CC1980
CC1980
CC1980
CFF980
CC6180
CC2180
CC3180
CC3180
CC1180
CC1980
CC1980
CC0D80
C00180
C00180
FFFF80
7FFF00
ENDCHAR
STARTCHAR 00AF
ENCODING 175
SWIDTH 382 0
DWIDTH 13 0
BBX 7 2 3 20
BITMAP
FE
FE
ENDCHAR
STARTCHAR 00B0
ENCODING 176
SWIDTH 323 0
DWIDTH 11 0
BBX 8 12 2 12
BITMAP
7E
FF
C3
C3
C3
C3
C3
C3
C3
C3
FF
7C
ENDCHAR
STARTCHAR 00B1
ENCODING 177
SWIDTH 470 0
DWIDTH 16 0
BBX 12 17 2 0
BITMAP
0600
0600
0600
0600
0600
FFF0
FFF0
0600
0600
0600
0600
0600
0000
0000
0000
FFF0
FFF0
ENDCHAR
STARTCHAR 00B4
ENCODING 180
SWIDTH 323 0
DWIDTH 11 0
BBX 6 5 3 19
BITMAP
1C
18
30
60
C0
ENDCHAR
STARTCHAR 00B5
ENCODING 181
SWIDTH 470 0
DWIDTH 16 0
BBX 11 24 2 -7
BITMAP
C060
C060
C060
C060
C060
C060
C060
C060
C060
C060
C060
C060
C060
C060
E060
FFE0
FFE0
C000
C000
C000
C000
C000
C000
C000
ENDCHAR
STARTCHAR 00B6
ENCODING 182
SWIDTH 529 0
DWIDTH 18 0
BBX 13 24 3 0
BITMAP
7FF8
FFF8
FFF8
FFF8
FFF8
FFF8
FFF8
FFF8
FFF8
FFF8
FFF8
FFF8
7FF8
0018
0018
0018
0018
0018
0018
0018
0018
0018
0018
0018
ENDCHAR
STARTCHAR 00B7
ENCODING 183
SWIDTH 205 0
DWIDTH 7 0
BBX 2 3 2 8
BITMAP
C0
C0
C0
ENDCHAR
STARTCHAR 00B8
ENCODING 184
SWIDTH 352 0
DWIDTH 12 0
BBX 7 7 2 -6
BITMAP
30
3C
06
06
06
0E
FC
ENDCHAR
STARTCHAR 00BA
ENCODING 186
SWIDTH 470 0
DWIDTH 16 0
BBX 11 24 2 0
BITMAP
7FC0
FFE0
E060
C060
C060
C060
C060
C060
C060
C060
C060
C060
C060
C060
E060
FFE0
7FC0
0000
0000
0000
0000
0000
FFE0
FFE0
ENDCHAR
STARTCHAR 00BB
ENCODING 187
SWIDTH 588 0
DWIDTH 20 0
BBX 18 14 1 3
BITMAP
C06000
E07000
783800
3C1E00
0E0F00
078380
0381C0
0381C0
078380
0E0F00
1C1E00
703800
E07000
C04000
ENDCHAR
STARTCHAR 00BF
ENCODING 191
SWIDTH 411 0
DWIDTH 14 0
BBX 10 24 2 -7
BITMAP
0600
0600
0600
0000
0000
0600
0600
0600
0600
0600
0600
0600
0600
0E00
1C00
3800
7000
E000
C000
C000
C000
E000
FFC0
7FC0
ENDCHAR
STARTCHAR 00C0
ENCODING 192
SWIDTH 500 0
DWIDTH 17 0
BBX 16 28 0 0
BITMAP
0FE0
0FE0
0000
0000
0380
03C0
07C0
06C0
06C0
06E0
0CE0
0C60
0C70
0C70
1870
1830
1838
1838
3038
301C
3FFC
3FFC
701C
600E
600E
600E
E007
C007
ENDCHAR
STARTCHAR 00C1
ENCODING 193
SWIDTH 500 0
DWIDTH 17 0
BBX 16 28 0 1
BITMAP
0C18
0C18
07F0
0000
01C0
03C0
03E0
03E0
0760
0660
0670
0670
0E30
0C30
0C38
0C18
1818
1818
181C
380C
3FFC
3FFC
300E
7006
6006
6006
E007
E003
ENDCHAR
STARTCHAR 00C2
ENCODING 194
SWIDTH 500 0
DWIDTH 17 0
BBX 16 28 0 0
BITMAP
0630
0630
0000
0000
01C0
03C0
03E0
0360
0360
0760
0670
0630
0E30
0C30
0C18
0C18
1C18
1818
180C
380C
3FFC
3FFC
300E
7006
7006
6006
E007
E003
ENDCHAR
STARTCHAR 00C3
ENCODING 195
SWIDTH 382 0
DWIDTH 13 0
BBX 10 24 2 0
BITMAP
0180
0300
0600
0600
0C00
0000
0000
7FC0
FFC0
E000
C000
C000
C000
C000
C000
C000
C000
C000
C000
C000
C000
E000
FFC0
7FC0
ENDCHAR
STARTCHAR 00C4
ENCODING 196
SWIDTH 500 0
DWIDTH 17 0
BBX 16 28 0 1
BITMAP
0600
0300
0180
0000
03C0
03C0
03C0
07C0
06E0
06E0
0660
0E70
0C70
0C30
0C30
1C38
1838
1818
1818
301C
3FFC
3FFC
700E
700E
600E
6006
E007
E007
ENDCHAR
STARTCHAR 00C5
ENCODING 197
SWIDTH 500 0
DWIDTH 17 0
BBX 16 28 0 0
BITMAP
0F08
1988
10F0
0000
03C0
03C0
03C0
03E0
07E0
0660
0660
0670
0E70
0C30
0C30
1C38
1818
1818
181C
381C
3FFC
3FFC
300E
700E
600E
6006
E007
E007
ENDCHAR
STARTCHAR 00C6
ENCODING 198
SWIDTH 764 0
DWIDTH 26 0
BBX 26 24 -1 0
BITMAP
000FFFC0
000FFFC0
001F0000
001B0000
003B0000
00330000
00730000
00630000
00E30000
00C30000
01C3FF00
0183FF00
03830000
07030000
07030000
0E030000
0FFF0000
1FFF0000
1C030000
38030000
38030000
70030000
7003FFC0
E003FFC0
ENDCHAR
STARTCHAR 00C7
ENCODING 199
SWIDTH 470 0
DWIDTH 16 0
BBX 13 28 3 1
BITMAP
0780
0CC0
1860
0000
7FF8
FFF8
E000
C000
C000
C000
C000
C000
C000
C000
C000
C000
C000
C000
C000
C000
C000
C000
C000
C000
C000
E000
FFF8
7FF8
ENDCHAR
STARTCHAR 00C8
ENCODING 200
SWIDTH 470 0
DWIDTH 16 0
BBX 11 28 3 1
BITMAP
1800
0C00
0600
0000
FFE0
FFE0
C000
C000
C000
C000
C000
C000
C000
C000
FF80
FF80
C000
C000
C000
C000
C000
C000
C000
C000
C000
C000
FFE0
FFE0
ENDCHAR
STARTCHAR 00C9
ENCODING 201
SWIDTH 470 0
DWIDTH 16 0
BBX 12 28 3 1
BITMAP
0180
0300
0400
0000
FFF0
FFF0
C000
C000
C000
C000
C000
C000
C000
C000
FFC0
FFC0
C000
C000
C000
C000
C000
C000
C000
C000
C000
C000
FFF0
FFF0
ENDCHAR
STARTCHAR 00CA
ENCODING 202
SWIDTH 470 0
DWIDTH 16 0
BBX 12 28 3 1
BITMAP
0F00
1980
30C0
0000
FFE0
FFE0
C000
C000
C000
C000
C000
C000
C000
C000
FFE0
FFE0
C000
C000
C000
C000
C000
C000
C000
C000
C000
C000
FFF0
FFF0
ENDCHAR
STARTCHAR 00CB
ENCODING 203
SWIDTH 470 0
DWIDTH 16 0
BBX 12 28 3 0
BITMAP
18C0
18C0
0000
0000
FFF0
FFF0
C000
C000
C000
C000
C000
C000
C000
C000
FFC0
FFC0
C000
C000
C000
C000
C000
C000
C000
C000
C000
C000
FFF0
FFF0
ENDCHAR
STARTCHAR 00CC
ENCODING 204
SWIDTH 235 0
DWIDTH 8 0
BBX 5 28 0 1
BITMAP
C0
60
10
00
18
18
18
18
18
18
18
18
18
18
18
18
18
18
18
18
18
18
18
18
18
18
18
18
ENDCHAR
STARTCHAR 00CD
ENCODING 205
SWIDTH 235 0
DWIDTH 8 0
BBX 4 28 3 1
BITMAP
30
60
C0
00
C0
C0
C0
C0
C0
C0
C0
C0
C0
C0
C0
C0
C0
C0
C0
C0
C0
C0
C0
C0
C0
C0
C0
C0
ENDCHAR
STARTCHAR 00CE
ENCODING 206
SWIDTH 235 0
DWIDTH 8 0
BBX 7 28 1 1
BITMAP
38
6C
C6
00
30
30
30
30
30
30
30
30
30
30
30
30
30
30
30
30
30
30
30
30
30
30
30
30
ENDCHAR
STARTCHAR 00CF
ENCODING 207
SWIDTH 235 0
DWIDTH 8 0
BBX 6 28 1 0
BITMAP
CC
CC
00
00
30
30
30
30
30
30
30
30
30
30
30
30
30
30
30
30
30
30
30
30
30
30
30
30
ENDCHAR
STARTCHAR 00D1
ENCODING 209
SWIDTH 558 0
DWIDTH 19 0
BBX 13 28 3 0
BITMAP
1E10
3310
21E0
0000
E018
E018
E018
F018
F018
F818
D818
DC18
CC18
CC18
C618
C618
C318
C318
C198
C198
C198
C0D8
C0D8
C078
C078
C038
C038
C018
ENDCHAR
STARTCHAR 00D2
ENCODING 210
SWIDTH 558 0
DWIDTH 19 0
BBX 13 28 3 1
BITMAP
0C00
0600
0300
0000
7FF0
FFF8
E038
C018
C018
C018
C018
C018
C018
C018
C018
C018
C018
C018
C018
C018
C018
C018
C018
C018
C018
E038
FFF8
7FF0
ENDCHAR
STARTCHAR 00D3
ENCODING 211
SWIDTH 558 0
DWIDTH 19 0
BBX 13 28 3 1
BITMAP
00C0
0180
0200
0000
7FF0
FFF8
E038
C018
C018
C018
C018
C018
C018
C018
C018
C018
C018
C018
C018
C018
C018
C018
C018
C018
C018
E038
FFF8
7FF0
ENDCHAR
STARTCHAR 00D4
ENCODING 212
SWIDTH 558 0
DWIDTH 19 0
BBX 13 28 3 1
BITMAP
0700
0D80
10C0
0000
7FF0
FFF8
E038
C018
C018
C018
C018
C018
C018
C018
C018
C018
C018
C018
C018
C018
C018
C018
C018
C018
C018
E038
FFF8
7FF0
ENDCHAR
STARTCHAR 00D5
ENCODING 213
SWIDTH 558 0
DWIDTH 19 0
BBX 13 28 3 0
BITMAP
1C20
6720
03E0
0000
7FF0
FFF8
E078
C038
C038
C038
C038
C038
C038
C038
C038
C038
C038
C038
C038
C038
C038
C038
C038
C038
C038
E078
FFF8
7FF0
ENDCHAR
STARTCHAR 00D6
ENCODING 214
SWIDTH 558 0
DWIDTH 19 0
BBX 13 28 3 0
BITMAP
18C0
18C0
0000
0000
7FF0
FFF8
E038
C018
C018
C018
C018
C018
C018
C018
C018
C018
C018
C018
C018
C018
C018
C018
C018
C018
C018
E038
FFF8
7FF0
ENDCHAR
STARTCHAR 00D8
ENCODING 216
SWIDTH 558 0
DWIDTH 19 0
BBX 19 24 0 0
BITMAP
0FFE60
1FFEC0
1C0780
180300
180300
180700
180700
180F00
181B00
183300
182300
186300
18C300
198300
190300
1B0300
1E0300
1C0300
180300
180300
180300
3C0700
7FFF00
CFFE00
ENDCHAR
STARTCHAR 00D9
ENCODING 217
SWIDTH 558 0
DWIDTH 19 0
BBX 13 28 3 1
BITMAP
1C00
0E00
0300
0000
C018
C018
C018
C018
C018
C018
C018
C018
C018
C018
C018
C018
C018
C018
C018
C018
C018
C018
C018
C018
C018
E038
FFF8
7FF0
ENDCHAR
STARTCHAR 00DA
ENCODING 218
SWIDTH 558 0
DWIDTH 19 0
BBX 13 28 3 1
BITMAP
00C0
0180
0300
0000
C018
C018
C018
C018
C018
C018
C018
C018
C018
C018
C018
C018
C018
C018
C018
C018
C018
C018
C018
C018
C018
E038
FFF8
7FF0
ENDCHAR
STARTCHAR 00DB
ENCODING 219
SWIDTH 558 0
DWIDTH 19 0
BBX 13 28 3 1
BITMAP
0700
0D80
18C0
0000
C018
C018
C018
C018
C018
C018
C018
C018
C018
C018
C018
C018
C018
C018
C018
C018
C018
C018
C018
C018
C018
E038
FFF8
7FF0
ENDCHAR
STARTCHAR 00DC
ENCODING 220
SWIDTH 558 0
DWIDTH 19 0
BBX 13 28 3 0
BITMAP
18C0
18C0
0000
0000
C018
C018
C018
C018
C018
C018
C018
C018
C018
C018
C018
C018
C018
C018
C018
C018
C018
C018
C018
C018
C018
E038
FFF8
7FF0
ENDCHAR
STARTCHAR 00DD
ENCODING 221
SWIDTH 529 0
DWIDTH 18 0
BBX 17 28 0 1
BITMAP
003000
006000
00C000
000000
E00180
E00380
700700
380700
380E00
1C0E00
1C1C00
0E1800
063800
073000
03F000
03E000
01E000
00C000
00C000
00C000
00C000
00C000
00C000
00C000
00C000
00C000
00C000
00C000
ENDCHAR
STARTCHAR 00DF
ENCODING 223
SWIDTH 500 0
DWIDTH 17 0
BBX 13 24 2 0
BITMAP
3FF0
FFF8
E038
C018
C018
C018
C038
C070
C1E0
C380
C300
C300
C300
C380
C1E0
C0F0
C038
C018
C018
C018
C018
C018
C3F8
C3F0
ENDCHAR
STARTCHAR 00E0
ENCODING 224
SWIDTH 470 0
DWIDTH 16 0
BBX 11 22 2 0
BITMAP
3F80
3F80
0000
0000
0000
FFC0
FFE0
0060
0060
0060
0060
3FE0
7FE0
E060
C060
C060
C060
C060
C060
E060
FFE0
7FE0
ENDCHAR
STARTCHAR 00E1
ENCODING 225
SWIDTH 470 0
DWIDTH 16 0
BBX 11 24 2 0
BITMAP
3040
3040
3040
3FC0
1F80
0000
0000
FFC0
FFE0
0060
0060
0060
0060
3FE0
7FE0
E060
C060
C060
C060
C060
C060
E060
FFE0
7FE0
ENDCHAR
STARTCHAR 00E2
ENCODING 226
SWIDTH 470 0
DWIDTH 16 0
BBX 11 22 2 1
BITMAP
3180
3180
0000
0000
0000
FFC0
FFE0
0060
0060
0060
0060
3FE0
7FE0
E060
C060
C060
C060
C060
C060
E060
FFE0
7FE0
ENDCHAR
STARTCHAR 00E3
ENCODING 227
SWIDTH 500 0
DWIDTH 17 0
BBX 16 28 0 1
BITMAP
0060
00C0
0100
0000
03C0
03C0
03C0
03C0
06E0
0660
0660
0E70
0C70
0C30
0C30
1C38
1838
1818
1818
381C
3FFC
3FFC
700E
700E
700E
6006
E007
E007
ENDCHAR
STARTCHAR 00E4
ENCODING 228
SWIDTH 470 0
DWIDTH 16 0
BBX 11 24 2 0
BITMAP
3000
1800
0C00
0E00
0600
0000
0000
FFC0
FFE0
0060
0060
0060
0060
3FE0
7FE0
E060
C060
C060
C060
C060
C060
E060
FFE0
7FE0
ENDCHAR
STARTCHAR 00E5
ENCODING 229
SWIDTH 470 0
DWIDTH 16 0
BBX 11 24 2 0
BITMAP
7820
7C20
C620
C3E0
C1C0
0000
0000
FFC0
FFE0
0060
0020
0020
0020
3FE0
7FE0
E020
C020
C020
C020
C020
C020
E020
FFE0
7FE0
ENDCHAR
STARTCHAR 00E6
ENCODING 230
SWIDTH 705 0
DWIDTH 24 0
BBX 20 17 2 0
BITMAP
FF9FE0
FFFFF0
006070
006030
006030
006030
3FFFF0
7FFFF0
E06000
C06000
C06000
C06000
C06000
C06000
E07000
FFFFF0
7F9FF0
ENDCHAR
STARTCHAR 00E7
ENCODING 231
SWIDTH 382 0
DWIDTH 13 0
BBX 10 24 2 0
BITMAP
0E00
0E00
1B00
3180
20C0
0000
0000
3FC0
FFC0
E000
C000
C000
C000
C000
C000
C000
C000
C000
C000
C000
C000
E000
FFC0
7FC0
ENDCHAR
STARTCHAR 00E8
ENCODING 232
SWIDTH 441 0
DWIDTH 15 0
BBX 11 24 2 0
BITMAP
3000
1800
0C00
0600
0300
0000
0000
3FC0
FFE0
C060
C060
C060
C060
FFE0
FFE0
C000
C000
C000
C000
C000
C000
E000
FFE0
7FE0
ENDCHAR
STARTCHAR 00E9
ENCODING 233
SWIDTH 441 0
DWIDTH 15 0
BBX 12 24 2 0
BITMAP
00E0
01C0
0380
0300
0600
0000
0000
3FE0
7FF0
E070
C030
C030
C030
FFF0
FFF0
C000
C000
C000
C000
C000
C000
E000
FFF0
3FF0
ENDCHAR
STARTCHAR 00EA
ENCODING 234
SWIDTH 441 0
DWIDTH 15 0
BBX 11 24 2 0
BITMAP
0E00
0F00
1B00
3180
20C0
0000
0000
7FC0
FFE0
C060
C060
C060
C060
FFE0
FFE0
C000
C000
C000
C000
C000
C000
E000
FFE0
7FE0
ENDCHAR
STARTCHAR 00EB
ENCODING 235
SWIDTH 441 0
DWIDTH 15 0
BBX 12 22 2 1
BITMAP
30C0
30C0
0000
0000
0000
3FE0
7FF0
E070
C030
C030
C030
FFF0
FFF0
C000
C000
C000
C000
C000
C000
E000
FFF0
3FF0
ENDCHAR
STARTCHAR 00EC
ENCODING 236
SWIDTH 205 0
DWIDTH 7 0
BBX 6 24 -1 0
BITMAP
E0
70
30
18
0C
00
00
1C
1C
1C
1C
1C
1C
1C
1C
1C
1C
1C
1C
1C
1C
1C
1C
1C
ENDCHAR
STARTCHAR 00ED
ENCODING 237
SWIDTH 205 0
DWIDTH 7 0
BBX 6 24 2 0
BITMAP
1C
38
30
60
C0
00
00
60
60
60
60
60
60
60
60
60
60
60
60
60
60
60
60
60
ENDCHAR
STARTCHAR 00EE
ENCODING 238
SWIDTH 205 0
DWIDTH 7 0
BBX 9 24 -1 0
BITMAP
1800
3C00
2600
6300
C380
0000
0000
1800
1800
1800
1800
1800
1800
1800
1800
1800
1800
1800
1800
1800
1800
1800
1800
1800
ENDCHAR
STARTCHAR 00EF
ENCODING 239
SWIDTH 205 0
DWIDTH 7 0
BBX 7 22 0 1
BITMAP
C6
C6
00
00
00
30
30
30
30
30
30
30
30
30
30
30
30
30
30
30
30
30
ENDCHAR
STARTCHAR 00F0
ENCODING 240
SWIDTH 529 0
DWIDTH 18 0
BBX 12 24 3 1
BITMAP
6000
3300
3E00
1C00
3E00
2700
0380
01C0
00E0
0070
7FF0
FFF0
C030
C030
C030
C030
C030
C030
C030
C030
C030
E070
FFF0
7FE0
ENDCHAR
STARTCHAR 00F1
ENCODING 241
SWIDTH 470 0
DWIDTH 16 0
BBX 11 24 2 0
BITMAP
7060
F860
E460
C3E0
C1C0
0000
0000
FFC0
FFE0
C060
C060
C060
C060
C060
C060
C060
C060
C060
C060
C060
C060
C060
C060
C060
ENDCHAR
STARTCHAR 00F2
ENCODING 242
SWIDTH 470 0
DWIDTH 16 0
BBX 11 24 2 0
BITMAP
3000
1800
0C00
0600
0300
0000
0000
7FC0
FFE0
E060
C060
C060
C060
C060
C060
C060
C060
C060
C060
C060
C060
E060
FFE0
7FC0
ENDCHAR
STARTCHAR 00F3
ENCODING 243
SWIDTH 470 0
DWIDTH 16 0
BBX 12 24 2 0
BITMAP
00C0
0180
0300
0700
0600
0000
0000
3FE0
FFF0
E070
C030
C030
C030
C030
C030
C030
C030
C030
C030
C030
C030
E070
FFF0
7FC0
ENDCHAR
STARTCHAR 00F4
ENCODING 244
SWIDTH 470 0
DWIDTH 16 0
BBX 11 24 2 0
BITMAP
0E00
0E00
1B00
3180
6080
0000
0000
7FC0
FFE0
E0E0
C060
C060
C060
C060
C060
C060
C060
C060
C060
C060
C060
E060
FFE0
7FC0
ENDCHAR
STARTCHAR 00F5
ENCODING 245
SWIDTH 470 0
DWIDTH 16 0
BBX 11 24 2 0
BITMAP
7060
F860
E460
C3E0
C1C0
0000
0000
7FC0
FFE0
E060
C060
C060
C060
C060
C060
C060
C060
C060
C060
C060
C060
E060
FFE0
7FC0
ENDCHAR
STARTCHAR 00F6
ENCODING 246
SWIDTH 470 0
DWIDTH 16 0
BBX 12 22 2 1
BITMAP
30C0
30C0
0000
0000
0000
3FE0
FFF0
E070
C030
C030
C030
C030
C030
C030
C030
C030
C030
C030
C030
E070
FFF0
7FC0
ENDCHAR
STARTCHAR 00F7
ENCODING 247
SWIDTH 470 0
DWIDTH 16 0
BBX 12 14 2 3
BITMAP
0600
0600
0000
0000
0000
0000
FFF0
FFF0
0000
0000
0000
0000
0600
0600
ENDCHAR
STARTCHAR 00F8
ENCODING 248
SWIDTH 470 0
DWIDTH 16 0
BBX 15 17 0 0
BITMAP
1FF6
3FFC
3818
3018
3038
3078
30D8
3098
3118
3318
3618
3C18
3818
3018
3818
7FF8
DFF0
ENDCHAR
STARTCHAR 00F9
ENCODING 249
SWIDTH 470 0
DWIDTH 16 0
BBX 11 24 2 0
BITMAP
3000
1800
0C00
0C00
0600
0000
0000
C060
C060
C060
C060
C060
C060
C060
C060
C060
C060
C060
C060
C060
C060
E060
FFE0
7FE0
ENDCHAR
STARTCHAR 00FA
ENCODING 250
SWIDTH 470 0
DWIDTH 16 0
BBX 12 24 2 0
BITMAP
00C0
0180
0380
0300
0600
0000
0000
C030
C030
C030
C030
C030
C030
C030
C030
C030
C030
C030
C030
C030
C030
E030
FFF0
7FF0
ENDCHAR
STARTCHAR 00FB
ENCODING 251
SWIDTH 470 0
DWIDTH 16 0
BBX 11 24 2 0
BITMAP
0E00
0E00
1B00
3180
6080
0000
0000
C060
C060
C060
C060
C060
C060
C060
C060
C060
C060
C060
C060
C060
C060
E060
FFE0
7FE0
ENDCHAR
STARTCHAR 00FC
ENCODING 252
SWIDTH 470 0
DWIDTH 16 0
BBX 12 22 2 1
BITMAP
30C0
30C0
0000
0000
0000
C030
C030
C030
C030
C030
C030
C030
C030
C030
C030
C030
C030
C030
C030
E030
FFF0
7FF0
ENDCHAR
STARTCHAR 00FD
ENCODING 253
SWIDTH 411 0
DWIDTH 14 0
BBX 13 31 0 -7
BITMAP
00E0
01C0
0180
0300
0600
0000
0000
E038
E038
6030
6070
7070
3060
30E0
30E0
18C0
18C0
19C0
1980
0D80
0F80
0F00
0700
0700
0600
0600
0E00
0C00
0C00
0C00
1800
ENDCHAR
STARTCHAR 00FF
ENCODING 255
SWIDTH 411 0
DWIDTH 14 0
BBX 13 29 0 -6
BITMAP
18C0
18C0
0000
0000
0000
E018
E038
6030
6030
7070
3060
3060
3860
18C0
18C0
18C0
1DC0
0D80
0D80
0F80
0700
0700
0700
0600
0600
0E00
0C00
1C00
1C00
ENDCHAR
STARTCHAR 0100
ENCODING 256
SWIDTH 500 0
DWIDTH 17 0
BBX 16 31 0 -7
BITMAP
03C0
03C0
03C0
03E0
07E0
0660
0660
0670
0E30
0C30
0C30
0C18
1818
1818
1818
180C
3FFC
3FFC
300C
700E
7006
6006
6006
E007
E007
0006
0018
0030
0030
0038
001F
ENDCHAR
STARTCHAR 0101
ENCODING 257
SWIDTH 470 0
DWIDTH 16 0
BBX 11 24 2 -7
BITMAP
FFC0
FFE0
0060
0060
0060
0060
3FE0
7FE0
E060
C060
C060
C060
C060
C060
E060
FFE0
7FE0
7FE0
00C0
0300
0600
0600
0700
03E0
ENDCHAR
STARTCHAR 0102
ENCODING 258
SWIDTH 500 0
DWIDTH 17 0
BBX 16 28 0 1
BITMAP
01C0
0360
0630
0000
01C0
01E0
03E0
0360
0360
0770
0730
0630
0630
0E38
0C18
0C18
1C18
1C0C
180C
380C
3FFC
3FFC
3006
7006
7006
6006
E003
E003
ENDCHAR
STARTCHAR 0103
ENCODING 259
SWIDTH 470 0
DWIDTH 16 0
BBX 11 24 2 0
BITMAP
0E00
0E00
1B00
3180
60C0
0000
0000
FFC0
FFE0
0060
0060
0060
0060
3FE0
7FE0
E060
C060
C060
C060
C060
C060
E060
FFE0
7FE0
ENDCHAR
STARTCHAR 0104
ENCODING 260
SWIDTH 500 0
DWIDTH 17 0
BBX 16 29 0 0
BITMAP
07E0
0C30
0C30
0C30
07E0
0000
03C0
03C0
03C0
03E0
0660
0660
0670
0E30
0C30
0C30
0C38
1818
1818
1818
380C
3FFC
3FFC
300E
700E
6006
6006
E007
E007
ENDCHAR
STARTCHAR 0105
ENCODING 261
SWIDTH 470 0
DWIDTH 16 0
BBX 11 24 2 0
BITMAP
1F80
30C0
30C0
30C0
1F80
0000
0000
FFC0
FFE0
0060
0060
0060
0060
3FE0
7FE0
E060
C060
C060
C060
C060
C060
E060
FFE0
7FE0
ENDCHAR
STARTCHAR 0106
ENCODING 262
SWIDTH 470 0
DWIDTH 16 0
BBX 12 28 3 1
BITMAP
18C0
0F80
0700
0000
7FF0
FFF0
E000
C000
C000
C000
C000
C000
C000
C000
C000
C000
C000
C000
C000
C000
C000
C000
C000
C000
C000
E000
FFF0
7FF0
ENDCHAR
STARTCHAR 0107
ENCODING 263
SWIDTH 382 0
DWIDTH 13 0
BBX 10 24 2 0
BITMAP
60C0
3180
1B00
0F00
0E00
0000
0000
3FC0
FFC0
E000
C000
C000
C000
C000
C000
C000
C000
C000
C000
C000
C000
E000
FFC0
7FC0
ENDCHAR
STARTCHAR 0108
ENCODING 264
SWIDTH 470 0
DWIDTH 16 0
BBX 11 27 3 0
BITMAP
0600
0600
0000
7FE0
FFE0
E000
C000
C000
C000
C000
C000
C000
C000
C000
C000
C000
C000
C000
C000
C000
C000
C000
C000
C000
E000
FFE0
7FE0
ENDCHAR
STARTCHAR 0109
ENCODING 265
SWIDTH 382 0
DWIDTH 13 0
BBX 9 22 2 0
BITMAP
0C00
0C00
0C00
0000
0000
7F80
FF80
E000
C000
C000
C000
C000
C000
C000
C000
C000
C000
C000
C000
E000
FF80
7F80
ENDCHAR
STARTCHAR 010A
ENCODING 266
SWIDTH 558 0
DWIDTH 19 0
BBX 13 28 3 1
BITMAP
18C0
0D80
0700
0000
FFF0
FFF8
C038
C018
C018
C018
C018
C018
C018
C018
C018
C018
C018
C018
C018
C018
C018
C018
C018
C018
C018
C038
FFF8
FFF0
ENDCHAR
STARTCHAR 010B
ENCODING 267
SWIDTH 470 0
DWIDTH 16 0
BBX 12 28 3 1
BITMAP
00C0
0180
0600
0000
7FF0
FFF0
E000
C000
C000
C000
C000
C000
C000
C000
C000
C000
C000
C000
C000
C000
C000
C000
C000
C000
C000
E000
FFF0
7FF0
ENDCHAR
STARTCHAR 010C
ENCODING 268
SWIDTH 470 0
DWIDTH 16 0
BBX 13 31 3 -7
BITMAP
7FF8
FFF8
E000
C000
C000
C000
C000
C000
C000
C000
C000
C000
C000
C000
C000
C000
C000
C000
C000
C000
C000
E000
FFF8
7FF8
0300
03C0
0060
0060
0060
00E0
0FC0
ENDCHAR
STARTCHAR 010D
ENCODING 269
SWIDTH 382 0
DWIDTH 13 0
BBX 10 24 2 -7
BITMAP
7FC0
FFC0
E000
C000
C000
C000
C000
C000
C000
C000
C000
C000
C000
C000
E000
FFC0
7FC0
0C00
0F00
0180
0180
0180
0380
1F00
ENDCHAR
STARTCHAR 010E
ENCODING 270
SWIDTH 558 0
DWIDTH 19 0
BBX 13 28 3 0
BITMAP
3F80
3F80
0000
0000
FFF0
FFF8
C038
C018
C018
C018
C018
C018
C018
C018
C018
C018
C018
C018
C018
C018
C018
C018
C018
C018
C018
C038
FFF8
FFF0
ENDCHAR
STARTCHAR 010F
ENCODING 271
SWIDTH 470 0
DWIDTH 16 0
BBX 13 24 2 0
BITMAP
0060
0060
07F8
07F8
0060
0060
0060
7FE0
FFE0
E060
C060
C060
C060
C060
C060
C060
C060
C060
C060
C060
C060
E060
FFE0
7FE0
ENDCHAR
STARTCHAR 0111
ENCODING 273
SWIDTH 470 0
DWIDTH 16 0
BBX 11 24 2 0
BITMAP
0060
0060
7F60
7F60
0060
0060
0060
7FE0
FFE0
E060
C060
C060
C060
C060
C060
C060
C060
C060
C060
C060
C060
E060
FFE0
7FE0
ENDCHAR
STARTCHAR 0112
ENCODING 274
SWIDTH 470 0
DWIDTH 16 0
BBX 12 28 3 0
BITMAP
1FC0
1FC0
0000
0000
FFF0
FFF0
C000
C000
C000
C000
C000
C000
C000
C000
FFC0
FFC0
C000
C000
C000
C000
C000
C000
C000
C000
C000
C000
FFF0
FFF0
ENDCHAR
STARTCHAR 0113
ENCODING 275
SWIDTH 441 0
DWIDTH 15 0
BBX 11 22 2 0
BITMAP
1FC0
1FC0
0000
0000
0000
3FC0
FFE0
C060
C060
C060
C060
FFE0
FFE0
C000
C000
C000
C000
C000
C000
E000
FFC0
7FC0
ENDCHAR
STARTCHAR 0114
ENCODING 276
SWIDTH 470 0
DWIDTH 16 0
BBX 12 28 3 1
BITMAP
30C0
30C0
1F80
0000
FFF0
FFF0
C000
C000
C000
C000
C000
C000
C000
C000
FFC0
FFC0
C000
C000
C000
C000
C000
C000
C000
C000
C000
C000
FFF0
FFF0
ENDCHAR
STARTCHAR 0115
ENCODING 277
SWIDTH 441 0
DWIDTH 15 0
BBX 11 24 2 0
BITMAP
4040
4040
6040
3FC0
1F80
0000
0000
3FC0
FFE0
C060
C060
C060
C060
FFE0
FFE0
C000
C000
C000
C000
C000
C000
E000
FFE0
7FE0
ENDCHAR
STARTCHAR 0116
ENCODING 278
SWIDTH 470 0
DWIDTH 16 0
BBX 13 27 3 0
BITMAP
0600
0600
0000
FFF0
FFF0
C000
C000
C000
C000
C000
C000
C000
C000
FFC0
FFC0
C000
C000
C000
C000
C000
C000
C000
C000
C000
C000
FFF8
FFF8
ENDCHAR
STARTCHAR 0117
ENCODING 279
SWIDTH 441 0
DWIDTH 15 0
BBX 11 22 2 0
BITMAP
0600
0600
0600
0000
0000
3FC0
FFE0
C060
C060
C060
C060
FFE0
FFE0
C000
C000
C000
C000
C000
C000
E000
FFE0
7FE0
ENDCHAR
STARTCHAR 0118
ENCODING 280
SWIDTH 470 0
DWIDTH 16 0
BBX 12 31 3 -7
BITMAP
FFE0
FFE0
C000
C000
C000
C000
C000
C000
C000
C000
FFC0
FFC0
C000
C000
C000
C000
C000
C000
C000
C000
C000
C000
FFF0
FFF0
FFF0
00C0
0300
0600
0600
0700
03E0
ENDCHAR
STARTCHAR 0119
ENCODING 281
SWIDTH 441 0
DWIDTH 15 0
BBX 11 24 2 -7
BITMAP
3FC0
7FE0
C060
C060
C060
C060
FFE0
FFE0
C000
C000
C000
C000
C000
C000
E000
FFE0
FFE0
7FE0
0180
0600
0C00
0C00
0F00
07C0
ENDCHAR
STARTCHAR 011A
ENCODING 282
SWIDTH 470 0
DWIDTH 16 0
BBX 13 28 3 1
BITMAP
18C0
0D80
0700
0000
FFF0
FFF0
C000
C000
C000
C000
C000
C000
C000
C000
FFE0
FFE0
C000
C000
C000
C000
C000
C000
C000
C000
C000
C000
FFF8
FFF8
ENDCHAR
STARTCHAR 011B
ENCODING 283
SWIDTH 441 0
DWIDTH 15 0
BBX 11 24 2 0
BITMAP
20C0
3180
1B00
0F00
0E00
0000
0000
7FC0
FFE0
C060
C060
C060
C060
FFE0
FFE0
C000
C000
C000
C000
C000
C000
E000
FFE0
7FE0
ENDCHAR
STARTCHAR 011C
ENCODING 284
SWIDTH 558 0
DWIDTH 19 0
BBX 13 28 3 1
BITMAP
0700
0D80
1840
0000
7FF8
FFF8
E000
C000
C000
C000
C000
C000
C000
C000
C3F8
C3F8
C018
C018
C018
C018
C018
C018
C018
C018
C018
E038
FFF8
7FF0
ENDCHAR
STARTCHAR 011D
ENCODING 285
SWIDTH 470 0
DWIDTH 16 0
BBX 11 31 2 -7
BITMAP
0600
0F00
1B00
3180
30C0
0000
0000
7FE0
FFE0
E060
C060
C060
C060
C060
C060
C060
C060
C060
C060
C060
C060
E060
FFE0
7FE0
0060
0060
0060
0060
0060
FFE0
FF80
ENDCHAR
STARTCHAR 011E
ENCODING 286
SWIDTH 558 0
DWIDTH 19 0
BBX 13 28 3 1
BITMAP
3060
3060
1FC0
0000
7FF8
FFF8
E000
C000
C000
C000
C000
C000
C000
C000
C3F8
C3F8
C018
C018
C018
C018
C018
C018
C018
C018
C018
E038
FFF8
7FF0
ENDCHAR
STARTCHAR 011F
ENCODING 287
SWIDTH 470 0
DWIDTH 16 0
BBX 11 31 2 -7
BITMAP
4040
4040
6040
3FC0
1F80
0000
0000
7FE0
FFE0
E060
C060
C060
C060
C060
C060
C060
C060
C060
C060
C060
C060
E060
FFE0
7FE0
0060
0060
0060
0060
0060
FFE0
FFC0
ENDCHAR
STARTCHAR 0120
ENCODING 288
SWIDTH 558 0
DWIDTH 19 0
BBX 13 27 3 0
BITMAP
0600
0600
0000
7FF8
FFF8
E000
C000
C000
C000
C000
C000
C000
C000
C7F8
C7F8
C018
C018
C018
C018
C018
C018
C018
C018
C018
E038
FFF8
7FF0
ENDCHAR
STARTCHAR 0121
ENCODING 289
SWIDTH 470 0
DWIDTH 16 0
BBX 11 29 2 -7
BITMAP
0600
0600
0600
0000
0000
7FE0
FFE0
E060
C060
C060
C060
C060
C060
C060
C060
C060
C060
C060
C060
E060
FFE0
7FE0
0060
0060
0060
0060
0060
FFE0
FFC0
ENDCHAR
STARTCHAR 0122
ENCODING 290
SWIDTH 558 0
DWIDTH 19 0
BBX 13 31 3 -7
BITMAP
7FF8
FFF8
E000
C000
C000
C000
C000
C000
C000
C000
C1F8
C1F8
C018
C018
C018
C018
C018
C018
C018
C018
C018
E038
FFF8
7FF0
0000
0180
0180
0180
0300
0300
0600
ENDCHAR
STARTCHAR 0123
ENCODING 291
SWIDTH 470 0
DWIDTH 16 0
BBX 11 31 2 -6
BITMAP
0180
0100
0300
0300
0300
0000
0000
7FE0
FFE0
E060
C060
C060
C060
C060
C060
C060
C060
C060
C060
C060
C060
E060
FFE0
7FE0
0060
0060
0060
0060
0060
FFE0
FFC0
ENDCHAR
STARTCHAR 0124
ENCODING 292
SWIDTH 558 0
DWIDTH 19 0
BBX 13 29 3 0
BITMAP
0700
0F80
18C0
3060
0000
C018
C018
C018
C018
C018
C018
C018
C018
C018
C018
FFF8
FFF8
C018
C018
C018
C018
C018
C018
C018
C018
C018
C018
C018
C018
ENDCHAR
STARTCHAR 0125
ENCODING 293
SWIDTH 470 0
DWIDTH 16 0
BBX 12 28 2 1
BITMAP
3800
6C00
C600
0000
C000
C000
C000
C000
C000
C000
C000
FFE0
FFF0
C070
C030
C030
C030
C030
C030
C030
C030
C030
C030
C030
C030
C030
C030
C030
ENDCHAR
STARTCHAR 0126
ENCODING 294
SWIDTH 558 0
DWIDTH 19 0
BBX 17 24 1 0
BITMAP
300600
300600
FFFF80
FFFF80
300600
300600
300600
300600
300600
300600
3FFE00
3FFE00
300600
300600
300600
300600
300600
300600
300600
300600
300600
300600
300600
300600
ENDCHAR
STARTCHAR 0127
ENCODING 295
SWIDTH 470 0
DWIDTH 16 0
BBX 12 24 1 0
BITMAP
6000
6000
FE00
FE00
6000
6000
6000
7FE0
7FF0
6070
6030
6030
6030
6030
6030
6030
6030
6030
6030
6030
6030
6030
6030
6030
ENDCHAR
STARTCHAR 0128
ENCODING 296
SWIDTH 235 0
DWIDTH 8 0
BBX 10 28 -1 0
BITMAP
7040
8C40
8780
0000
0C00
0C00
0C00
0C00
0C00
0C00
0C00
0C00
0C00
0C00
0C00
0C00
0C00
0C00
0C00
0C00
0C00
0C00
0C00
0C00
0C00
0C00
0C00
0C00
ENDCHAR
STARTCHAR 0129
ENCODING 297
SWIDTH 205 0
DWIDTH 7 0
BBX 9 24 -1 0
BITMAP
7080
F880
9C80
8F80
8700
0000
0000
1800
1800
1800
1800
1800
1800
1800
1800
1800
1800
1800
1800
1800
1800
1800
1800
1800
ENDCHAR
STARTCHAR 012A
ENCODING 298
SWIDTH 235 0
DWIDTH 8 0
BBX 7 28 0 0
BITMAP
FE
FE
00
00
30
30
30
30
30
30
30
30
30
30
30
30
30
30
30
30
30
30
30
30
30
30
30
30
ENDCHAR
STARTCHAR 012B
ENCODING 299
SWIDTH 205 0
DWIDTH 7 0
BBX 7 22 0 0
BITMAP
FE
FE
00
00
00
30
30
30
30
30
30
30
30
30
30
30
30
30
30
30
30
30
ENDCHAR
STARTCHAR 012C
ENCODING 300
SWIDTH 235 0
DWIDTH 8 0
BBX 8 28 0 1
BITMAP
C3
C3
7E
00
18
18
18
18
18
18
18
18
18
18
18
18
18
18
18
18
18
18
18
18
18
18
18
18
ENDCHAR
STARTCHAR 012D
ENCODING 301
SWIDTH 205 0
DWIDTH 7 0
BBX 9 24 -1 0
BITMAP
C180
C180
C180
7F00
3E00
0000
0000
1800
1800
1800
1800
1800
1800
1800
1800
1800
1800
1800
1800
1800
1800
1800
1800
1800
ENDCHAR
STARTCHAR 012E
ENCODING 302
SWIDTH 235 0
DWIDTH 8 0
BBX 6 30 -1 -7
BITMAP
0C
0C
0C
0C
0C
0C
0C
0C
0C
0C
0C
0C
0C
0C
0C
0C
0C
0C
0C
0C
0C
0C
0C
0C
18
60
C0
C0
F0
7C
ENDCHAR
STARTCHAR 012F
ENCODING 303
SWIDTH 205 0
DWIDTH 7 0
BBX 6 29 0 -7
BITMAP
30
30
30
00
00
30
30
30
30
30
30
30
30
30
30
30
30
30
30
30
30
30
30
60
C0
C0
C0
E0
FC
ENDCHAR
STARTCHAR 0130
ENCODING 304
SWIDTH 235 0
DWIDTH 8 0
BBX 2 27 3 0
BITMAP
C0
C0
00
C0
C0
C0
C0
C0
C0
C0
C0
C0
C0
C0
C0
C0
C0
C0
C0
C0
C0
C0
C0
C0
C0
C0
C0
ENDCHAR
STARTCHAR 0131
ENCODING 305
SWIDTH 205 0
DWIDTH 7 0
BBX 2 17 2 0
BITMAP
C0
C0
C0
C0
C0
C0
C0
C0
C0
C0
C0
C0
C0
C0
C0
C0
C0
ENDCHAR
STARTCHAR 0132
ENCODING 306
SWIDTH 500 0
DWIDTH 17 0
BBX 11 24 3 0
BITMAP
C060
C060
C060
C060
C060
C060
C060
C060
C060
C060
C060
C060
C060
C060
C060
C060
C060
C060
C060
C060
C060
C0E0
DFE0
DFC0
ENDCHAR
STARTCHAR 0133
ENCODING 307
SWIDTH 411 0
DWIDTH 14 0
BBX 10 29 2 -7
BITMAP
C1C0
C1C0
C1C0
0000
0000
C1C0
C1C0
C1C0
C1C0
C1C0
C1C0
C1C0
C1C0
C1C0
C1C0
C1C0
C1C0
C1C0
C1C0
C1C0
C1C0
C1C0
01C0
01C0
01C0
0180
0180
0180
0380
ENDCHAR
STARTCHAR 0134
ENCODING 308
SWIDTH 323 0
DWIDTH 11 0
BBX 10 28 0 1
BITMAP
0700
0D80
18C0
0000
0300
0300
0300
0300
0300
0300
0300
0300
0300
0300
0300
0300
0300
0300
0300
0300
0300
0300
0300
0300
0300
0700
FF00
FE00
ENDCHAR
STARTCHAR 0135
ENCODING 309
SWIDTH 205 0
DWIDTH 7 0
BBX 8 31 0 -7
BITMAP
18
3C
66
66
C3
00
00
18
18
18
18
18
18
18
18
18
18
18
18
18
18
18
18
18
18
18
18
18
38
30
30
ENDCHAR
STARTCHAR 0136
ENCODING 310
SWIDTH 529 0
DWIDTH 18 0
BBX 13 31 3 -6
BITMAP
C038
C030
C070
C060
C0E0
C0E0
C1C0
C1C0
C180
C380
FF00
FF00
C380
C180
C1C0
C1C0
C0C0
C0E0
C060
C070
C070
C038
C038
C018
0000
0600
0600
0600
0600
0C00
0C00
ENDCHAR
STARTCHAR 0137
ENCODING 311
SWIDTH 441 0
DWIDTH 15 0
BBX 12 30 2 -6
BITMAP
C000
C000
C000
C000
C000
C000
C030
C070
C060
C0E0
C1C0
C1C0
C380
FF80
FF80
C380
C1C0
C1C0
C0E0
C0E0
C070
C070
C030
0000
0300
0300
0300
0700
0600
0E00
ENDCHAR
STARTCHAR 0139
ENCODING 313
SWIDTH 470 0
DWIDTH 16 0
BBX 12 28 3 1
BITMAP
1800
3000
6000
0000
C000
C000
C000
C000
C000
C000
C000
C000
C000
C000
C000
C000
C000
C000
C000
C000
C000
C000
C000
C000
C000
C000
FFF0
FFF0
ENDCHAR
STARTCHAR 013A
ENCODING 314
SWIDTH 205 0
DWIDTH 7 0
BBX 5 28 2 1
BITMAP
18
30
60
00
C0
C0
C0
C0
C0
C0
C0
C0
C0
C0
C0
C0
C0
C0
C0
C0
C0
C0
C0
C0
C0
C0
C0
C0
ENDCHAR
STARTCHAR 013B
ENCODING 315
SWIDTH 470 0
DWIDTH 16 0
BBX 12 31 3 -7
BITMAP
C000
C000
C000
C000
C000
C000
C000
C000
C000
C000
C000
C000
C000
C000
C000
C000
C000
C000
C000
C000
C000
C000
FFF0
FFF0
0000
0600
0600
0600
0600
0C00
0C00
ENDCHAR
STARTCHAR 013C
ENCODING 316
SWIDTH 205 0
DWIDTH 7 0
BBX 3 31 1 -7
BITMAP
60
60
60
60
60
60
60
60
60
60
60
60
60
60
60
60
60
60
60
60
60
60
60
60
00
60
60
60
60
40
C0
ENDCHAR
STARTCHAR 013D
ENCODING 317
SWIDTH 470 0
DWIDTH 16 0
BBX 12 24 3 0
BITMAP
C200
C200
C200
C200
C200
C000
C000
C000
C000
C000
C000
C000
C000
C000
C000
C000
C000
C000
C000
C000
C000
C000
FFF0
FFF0
ENDCHAR
STARTCHAR 013E
ENCODING 318
SWIDTH 235 0
DWIDTH 8 0
BBX 6 24 2 0
BITMAP
CC
CC
CC
CC
CC
C0
C0
C0
C0
C0
C0
C0
C0
C0
C0
C0
C0
C0
C0
C0
C0
C0
C0
C0
ENDCHAR
STARTCHAR 013F
ENCODING 319
SWIDTH 470 0
DWIDTH 16 0
BBX 12 24 3 0
BITMAP
C000
C000
C000
C000
C000
C000
C000
C000
C000
C600
C600
C600
C000
C000
C000
C000
C000
C000
C000
C000
C000
C000
FFF0
FFF0
ENDCHAR
STARTCHAR 0140
ENCODING 320
SWIDTH 235 0
DWIDTH 8 0
BBX 4 24 2 0
BITMAP
C0
C0
C0
C0
C0
C0
C0
C0
C0
D0
D0
D0
C0
C0
C0
C0
C0
C0
C0
C0
C0
C0
C0
C0
ENDCHAR
STARTCHAR 0141
ENCODING 321
SWIDTH 470 0
DWIDTH 16 0
BBX 14 24 1 0
BITMAP
3000
3000
3000
3000
3000
3000
3040
30C0
3180
3300
3E00
3C00
3000
7000
F000
B000
3000
3000
3000
3000
3000
3000
3FFC
3FFC
ENDCHAR
STARTCHAR 0142
ENCODING 322
SWIDTH 205 0
DWIDTH 7 0
BBX 7 24 0 0
BITMAP
38
38
38
38
38
38
38
3A
3E
3C
38
38
38
78
78
B8
38
38
38
38
38
38
38
38
ENDCHAR
STARTCHAR 0143
ENCODING 323
SWIDTH 558 0
DWIDTH 19 0
BBX 13 28 3 1
BITMAP
00C0
0180
0200
0000
E018
E018
E018
F018
F018
F818
D818
DC18
CC18
CE18
C618
C618
C718
C318
C398
C198
C1D8
C0D8
C0D8
C078
C078
C078
C038
C038
ENDCHAR
STARTCHAR 0144
ENCODING 324
SWIDTH 470 0
DWIDTH 16 0
BBX 12 24 2 0
BITMAP
00C0
0180
0380
0300
0600
0000
0000
FFE0
FFF0
C070
C030
C030
C030
C030
C030
C030
C030
C030
C030
C030
C030
C030
C030
C030
ENDCHAR
STARTCHAR 0145
ENCODING 325
SWIDTH 558 0
DWIDTH 19 0
BBX 13 31 3 -7
BITMAP
E018
E018
E018
F018
F018
F818
D818
DC18
CC18
CE18
C618
C618
C718
C318
C398
C198
C1D8
C0D8
C0D8
C078
C078
C078
C038
C038
0000
0700
0700
0700
0600
0600
0C00
ENDCHAR
STARTCHAR 0146
ENCODING 326
SWIDTH 470 0
DWIDTH 16 0
BBX 11 24 2 -7
BITMAP
FFC0
FFE0
C060
C060
C060
C060
C060
C060
C060
C060
C060
C060
C060
C060
C060
C060
C060
0000
0300
0300
0300
0700
0600
0E00
ENDCHAR
STARTCHAR 0147
ENCODING 327
SWIDTH 558 0
DWIDTH 19 0
BBX 13 28 3 1
BITMAP
18C0
0D80
0700
0000
C018
E018
E018
F018
F018
F018
D818
D818
CC18
CC18
C618
C618
C318
C318
C198
C198
C1D8
C0D8
C0D8
C078
C078
C038
C038
C018
ENDCHAR
STARTCHAR 0148
ENCODING 328
SWIDTH 470 0
DWIDTH 16 0
BBX 11 24 2 0
BITMAP
60C0
3180
1B00
1E00
0E00
0000
0000
FFC0
FFE0
C060
C060
C060
C060
C060
C060
C060
C060
C060
C060
C060
C060
C060
C060
C060
ENDCHAR
STARTCHAR 0149
ENCODING 329
SWIDTH 470 0
DWIDTH 16 0
BBX 11 24 2 0
BITMAP
C000
C000
C000
C000
8000
0000
0000
FFC0
FFE0
C060
C060
C060
C060
C060
C060
C060
C060
C060
C060
C060
C060
C060
C060
C060
ENDCHAR
STARTCHAR 014A
ENCODING 330
SWIDTH 558 0
DWIDTH 19 0
BBX 13 29 3 -5
BITMAP
E018
E018
E018
F018
F018
F818
D818
DC18
CC18
CE18
C618
C618
C318
C318
C198
C198
C0D8
C0D8
C0D8
C078
C078
C038
C038
C018
0018
0018
0030
0030
0030
ENDCHAR
STARTCHAR 014B
ENCODING 331
SWIDTH 470 0
DWIDTH 16 0
BBX 11 22 2 -5
BITMAP
FFC0
FFE0
C060
C060
C060
C060
C060
C060
C060
C060
C060
C060
C060
C060
C060
C060
C060
0060
0060
00C0
00C0
00C0
ENDCHAR
STARTCHAR 014C
ENCODING 332
SWIDTH 558 0
DWIDTH 19 0
BBX 13 28 3 0
BITMAP
1FC0
1FC0
0000
0000
7FF0
FFF8
E038
C018
C018
C018
C018
C018
C018
C018
C018
C018
C018
C018
C018
C018
C018
C018
C018
C018
C018
E038
FFF8
7FF0
ENDCHAR
STARTCHAR 014D
ENCODING 333
SWIDTH 470 0
DWIDTH 16 0
BBX 11 22 2 0
BITMAP
3F80
3F80
0000
0000
0000
7FC0
FFE0
E0E0
C060
C060
C060
C060
C060
C060
C060
C060
C060
C060
C060
E060
FFE0
7FC0
ENDCHAR
STARTCHAR 014E
ENCODING 334
SWIDTH 558 0
DWIDTH 19 0
BBX 13 28 3 1
BITMAP
3060
3060
1FC0
0000
7FF0
FFF8
E038
C018
C018
C018
C018
C018
C018
C018
C018
C018
C018
C018
C018
C018
C018
C018
C018
C018
C018
E038
FFF8
7FF0
ENDCHAR
STARTCHAR 014F
ENCODING 335
SWIDTH 470 0
DWIDTH 16 0
BBX 11 24 2 0
BITMAP
40C0
40C0
60C0
3FC0
1F80
0000
0000
7FC0
FFE0
C0E0
C0E0
C0E0
C0E0
C0E0
C0E0
C0E0
C0E0
C0E0
C0E0
C0E0
C0E0
E0E0
FFE0
7FC0
ENDCHAR
STARTCHAR 0150
ENCODING 336
SWIDTH 558 0
DWIDTH 19 0
BBX 13 28 3 0
BITMAP
0230
0460
0880
0000
7FF0
FFF8
E038
C018
C018
C018
C018
C018
C018
C018
C018
C018
C018
C018
C018
C018
C018
C018
C018
C018
C018
E038
FFF8
7FF0
ENDCHAR
STARTCHAR 0151
ENCODING 337
SWIDTH 470 0
DWIDTH 16 0
BBX 10 24 2 0
BITMAP
0CC0
1880
1980
3300
2200
0000
0000
7F80
FFC0
C0C0
C0C0
C0C0
C0C0
C0C0
C0C0
C0C0
C0C0
C0C0
C0C0
C0C0
C0C0
C0C0
FFC0
7F80
ENDCHAR
STARTCHAR 0152
ENCODING 338
SWIDTH 794 0
DWIDTH 27 0
BBX 23 24 3 0
BITMAP
7FFFFE
FFFFFE
E01800
C01800
C01800
C01800
C01800
C01800
C01800
C01800
C01FF8
C01FF8
C01800
C01800
C01800
C01800
C01800
C01800
C01800
C01800
C01800
E01800
FFFFFE
7FFFFE
ENDCHAR
STARTCHAR 0153
ENCODING 339
SWIDTH 705 0
DWIDTH 24 0
BBX 20 17 2 0
BITMAP
3F9FE0
FFFFF0
E07030
C06030
C06030
C06030
C07FF0
C07FF0
C06000
C06000
C06000
C06000
C06000
C06000
E07000
FFFFF0
7F9FF0
ENDCHAR
STARTCHAR 0154
ENCODING 340
SWIDTH 558 0
DWIDTH 19 0
BBX 14 28 3 1
BITMAP
0180
0300
0C00
0000
FFF0
FFF8
C038
C018
C018
C018
C018
C018
C018
C018
C038
FFF8
FFF0
C0C0
C0E0
C060
C060
C070
C030
C038
C038
C018
C01C
C01C
ENDCHAR
STARTCHAR 0155
ENCODING 341
SWIDTH 294 0
DWIDTH 10 0
BBX 8 24 2 0
BITMAP
07
0E
0C
18
30
00
00
DE
FE
E0
C0
C0
C0
C0
C0
C0
C0
C0
C0
C0
C0
C0
C0
C0
ENDCHAR
STARTCHAR 0156
ENCODING 342
SWIDTH 558 0
DWIDTH 19 0
BBX 14 31 3 -7
BITMAP
FFF0
FFF8
C038
C018
C018
C018
C018
C018
C018
C018
C038
FFF8
FFF0
C0C0
C0E0
C060
C060
C070
C030
C038
C038
C018
C01C
C00C
0000
0300
0300
0300
0300
0600
0600
ENDCHAR
STARTCHAR 0157
ENCODING 343
SWIDTH 294 0
DWIDTH 10 0
BBX 8 24 1 -7
BITMAP
6F
7F
70
60
60
60
60
60
60
60
60
60
60
60
60
60
60
00
60
60
60
60
C0
C0
ENDCHAR
STARTCHAR 0158
ENCODING 344
SWIDTH 558 0
DWIDTH 19 0
BBX 14 28 3 1
BITMAP
18C0
0F80
0700
0000
FFF0
FFF8
C038
C018
C018
C018
C018
C018
C018
C018
C038
FFF8
FFF0
C0C0
C0E0
C060
C060
C070
C030
C030
C038
C018
C01C
C01C
ENDCHAR
STARTCHAR 0159
ENCODING 345
SWIDTH 294 0
DWIDTH 10 0
BBX 10 24 2 0
BITMAP
60C0
6180
3300
1E00
0C00
0000
0000
EF80
FF80
F000
E000
E000
E000
E000
E000
E000
E000
E000
E000
E000
E000
E000
E000
E000
ENDCHAR
STARTCHAR 015A
ENCODING 346
SWIDTH 500 0
DWIDTH 17 0
BBX 12 28 2 1
BITMAP
0180
0300
0600
0000
7FF0
FFF0
E000
C000
C000
C000
C000
E000
7000
3800
1C00
0F00
0780
03C0
00E0
0070
0030
0030
0030
0030
0030
0070
FFF0
FFE0
ENDCHAR
STARTCHAR 015B
ENCODING 347
SWIDTH 411 0
DWIDTH 14 0
BBX 10 24 2 0
BITMAP
0180
0300
0600
0C00
0C00
0000
0000
7FC0
FFC0
C000
C000
C000
E000
7000
3C00
1F00
0780
01C0
00C0
00C0
00C0
00C0
FFC0
FF80
ENDCHAR
STARTCHAR 015C
ENCODING 348
SWIDTH 500 0
DWIDTH 17 0
BBX 13 28 2 1
BITMAP
0780
0DC0
1860
0000
3FF8
FFF8
E000
C000
C000
C000
C000
E000
7000
3C00
1E00
0F00
0380
01E0
00F0
0038
0018
0018
0018
0018
0018
0038
FFF8
FFF0
ENDCHAR
STARTCHAR 015D
ENCODING 349
SWIDTH 411 0
DWIDTH 14 0
BBX 10 24 2 0
BITMAP
0C00
1E00
1300
3300
6180
0000
0000
7FC0
FFC0
C000
C000
C000
E000
7000
3C00
1E00
0780
01C0
00C0
00C0
00C0
00C0
FFC0
FF80
ENDCHAR
STARTCHAR 015E
ENCODING 350
SWIDTH 500 0
DWIDTH 17 0
BBX 12 31 2 -7
BITMAP
7FF0
FFF0
E000
C000
C000
C000
C000
E000
7000
3800
1C00
0F00
0780
03C0
00E0
0070
0030
0030
0030
0030
0030
0070
FFF0
FFE0
0600
0F80
00C0
00C0
00C0
01C0
1F80
ENDCHAR
STARTCHAR 015F
ENCODING 351
SWIDTH 411 0
DWIDTH 14 0
BBX 10 24 2 -7
BITMAP
7FC0
FFC0
C000
C000
C000
E000
7000
3C00
1F00
0780
01C0
00C0
00C0
00C0
00C0
FFC0
FF80
0800
1F00
0180
0180
0180
0380
3F00
ENDCHAR
STARTCHAR 0160
ENCODING 352
SWIDTH 500 0
DWIDTH 17 0
BBX 12 28 2 1
BITMAP
18C0
0D80
0700
0000
7FF0
FFF0
E000
C000
C000
C000
C000
E000
7000
3800
1C00
0F00
0780
03C0
00E0
0070
0030
0030
0030
0030
0030
0070
FFF0
FFE0
ENDCHAR
STARTCHAR 0161
ENCODING 353
SWIDTH 411 0
DWIDTH 14 0
BBX 10 24 2 0
BITMAP
6180
7100
3300
1E00
0C00
0000
0000
7F80
FF80
C000
C000
C000
E000
7000
3C00
1E00
0780
03C0
00C0
00C0
00C0
00C0
FFC0
FF80
ENDCHAR
STARTCHAR 0162
ENCODING 354
SWIDTH 470 0
DWIDTH 16 0
BBX 13 31 1 -7
BITMAP
FFF8
FFF8
0300
0300
0300
0300
0300
0300
0300
0300
0300
0300
0300
0300
0300
0300
0300
0300
0300
0300
0300
0300
0300
0300
0000
0300
0300
0300
0300
0200
0600
ENDCHAR
STARTCHAR 0163
ENCODING 355
SWIDTH 294 0
DWIDTH 10 0
BBX 7 28 2 -6
BITMAP
C0
C0
C0
C0
FE
FE
C0
C0
C0
C0
C0
C0
C0
C0
C0
C0
C0
C0
E0
FE
7E
00
18
18
18
38
30
30
ENDCHAR
STARTCHAR 0164
ENCODING 356
SWIDTH 470 0
DWIDTH 16 0
BBX 15 28 1 1
BITMAP
0C60
07C0
0300
0000
FFFE
FFFE
0300
0300
0300
0300
0300
0300
0300
0300
0300
0300
0300
0300
0300
0300
0300
0300
0300
0300
0300
0300
0300
0300
ENDCHAR
STARTCHAR 0165
ENCODING 357
SWIDTH 294 0
DWIDTH 10 0
BBX 8 24 2 0
BITMAP
02
02
02
C2
C2
C0
C0
FF
FF
C0
C0
C0
C0
C0
C0
C0
C0
C0
C0
C0
C0
E0
7F
3F
ENDCHAR
STARTCHAR 0166
ENCODING 358
SWIDTH 470 0
DWIDTH 16 0
BBX 13 24 2 0
BITMAP
FFF8
FFF8
0600
0600
0600
0600
0600
0600
0600
0600
0600
0600
0600
FFF0
FFF0
0600
0600
0600
0600
0600
0600
0600
0600
0600
ENDCHAR
STARTCHAR 0167
ENCODING 359
SWIDTH 294 0
DWIDTH 10 0
BBX 9 21 0 1
BITMAP
1800
1800
1800
1800
1F80
1F80
1800
1800
1800
1800
FF80
FF80
1800
1800
1800
1800
1800
1800
1800
1F80
0F80
ENDCHAR
STARTCHAR 0168
ENCODING 360
SWIDTH 558 0
DWIDTH 19 0
BBX 13 28 3 0
BITMAP
1C20
2720
21E0
0000
E038
E038
E038
E038
E038
E038
E038
E038
E038
E038
E038
E038
E038
E038
E038
E038
E038
E038
E038
E038
E038
F078
FFF8
7FF0
ENDCHAR
STARTCHAR 0169
ENCODING 361
SWIDTH 470 0
DWIDTH 16 0
BBX 11 24 2 0
BITMAP
7060
F860
E460
C3E0
C1C0
0000
0000
C060
C060
C060
C060
C060
C060
C060
C060
C060
C060
C060
C060
C060
C060
E060
FFE0
7FE0
ENDCHAR
STARTCHAR 016A
ENCODING 362
SWIDTH 558 0
DWIDTH 19 0
BBX 13 28 3 0
BITMAP
1FC0
1FC0
0000
0000
C018
C018
C018
C018
C018
C018
C018
C018
C018
C018
C018
C018
C018
C018
C018
C018
C018
C018
C018
C018
C018
E038
FFF8
7FF0
ENDCHAR
STARTCHAR 016B
ENCODING 363
SWIDTH 470 0
DWIDTH 16 0
BBX 11 22 2 0
BITMAP
3F80
3F80
0000
0000
0000
C060
C060
C060
C060
C060
C060
C060
C060
C060
C060
C060
C060
C060
C060
E060
FFE0
7FE0
ENDCHAR
STARTCHAR 016C
ENCODING 364
SWIDTH 558 0
DWIDTH 19 0
BBX 13 28 3 1
BITMAP
3060
3060
1FC0
0000
C018
C018
C018
C018
C018
C018
C018
C018
C018
C018
C018
C018
C018
C018
C018
C018
C018
C018
C018
C018
C018
E038
FFF8
7FF0
ENDCHAR
STARTCHAR 016D
ENCODING 365
SWIDTH 470 0
DWIDTH 16 0
BBX 11 24 2 0
BITMAP
40C0
40C0
60C0
3FC0
1F80
0000
0000
C0E0
C0E0
C0E0
C0E0
C0E0
C0E0
C0E0
C0E0
C0E0
C0E0
C0E0
C0E0
C0E0
C0E0
C0E0
FFE0
7FE0
ENDCHAR
STARTCHAR 016E
ENCODING 366
SWIDTH 558 0
DWIDTH 19 0
BBX 13 29 3 0
BITMAP
0F80
18C0
18C0
18C0
0F80
0000
C018
C018
C018
C018
C018
C018
C018
C018
C018
C018
C018
C018
C018
C018
C018
C018
C018
C018
C018
C018
E038
FFF8
7FF0
ENDCHAR
STARTCHAR 016F
ENCODING 367
SWIDTH 470 0
DWIDTH 16 0
BBX 12 24 2 0
BITMAP
1F80
30C0
30C0
30C0
1F80
0000
0000
C030
C030
C030
C030
C030
C030
C030
C030
C030
C030
C030
C030
C030
C030
E030
FFF0
7FF0
ENDCHAR
STARTCHAR 0170
ENCODING 368
SWIDTH 558 0
DWIDTH 19 0
BBX 12 28 3 0
BITMAP
0620
0C40
1880
0000
C010
C010
C010
C010
C010
C010
C010
C010
C010
C010
C010
C010
C010
C010
C010
C010
C010
C010
C010
C010
C010
E030
FFF0
7FE0
ENDCHAR
STARTCHAR 0171
ENCODING 369
SWIDTH 470 0
DWIDTH 16 0
BBX 11 24 2 0
BITMAP
0460
0CC0
1880
1180
2300
0000
0000
C060
C060
C060
C060
C060
C060
C060
C060
C060
C060
C060
C060
C060
C060
E060
FFE0
7FE0
ENDCHAR
STARTCHAR 0172
ENCODING 370
SWIDTH 558 0
DWIDTH 19 0
BBX 13 31 3 -7
BITMAP
C018
C018
C018
C018
C018
C018
C018
C018
C018
C018
C018
C018
C018
C018
C018
C018
C018
C018
C018
C018
C018
E038
FFF8
FFF8
7FF0
0180
0600
0C00
0C00
0E00
0FC0
ENDCHAR
STARTCHAR 0173
ENCODING 371
SWIDTH 470 0
DWIDTH 16 0
BBX 11 24 2 -7
BITMAP
C060
C060
C060
C060
C060
C060
C060
C060
C060
C060
C060
C060
C060
C060
E060
FFE0
FFE0
7FE0
00C0
0300
0600
0600
0700
03E0
ENDCHAR
STARTCHAR 0174
ENCODING 372
SWIDTH 764 0
DWIDTH 26 0
BBX 25 28 1 1
BITMAP
001C0000
00360000
00630000
00000000
E01C0180
E01C0380
601C0300
601E0300
603E0300
70360700
70360700
30360600
30370600
38670600
38630E00
18630C00
18630C00
18638C00
1CC19C00
1CC19800
0CC19800
0CC19800
0EC1D800
0F80F000
0780F000
0780F000
0780F000
0700F000
ENDCHAR
STARTCHAR 0175
ENCODING 373
SWIDTH 647 0
DWIDTH 22 0
BBX 20 24 1 0
BITMAP
007000
007000
00D800
018C00
030600
000000
000000
E07030
E07030
607060
70D860
70D860
70D860
30D840
30DCC0
398CC0
198CC0
198CC0
198C80
1D0F80
0F0780
0F0780
0F0700
0F0700
ENDCHAR
STARTCHAR 0176
ENCODING 374
SWIDTH 529 0
DWIDTH 18 0
BBX 17 28 1 1
BITMAP
01C000
026000
043000
000000
E00180
E00380
700700
700700
380E00
380C00
1C1C00
1C3800
0E3000
067000
07E000
03E000
03C000
018000
018000
018000
018000
018000
018000
018000
018000
018000
018000
018000
ENDCHAR
STARTCHAR 0177
ENCODING 375
SWIDTH 411 0
DWIDTH 14 0
BBX 13 31 0 -7
BITMAP
0700
0700
0D80
18C0
3060
0000
0000
E018
E038
6030
6030
7070
3060
3060
3860
38C0
18C0
18C0
1D80
0D80
0D80
0F80
0700
0700
0700
0600
0600
0E00
0C00
1C00
1C00
ENDCHAR
STARTCHAR 0178
ENCODING 376
SWIDTH 529 0
DWIDTH 18 0
BBX 16 28 1 0
BITMAP
0660
0660
0000
0000
E007
E007
700E
700E
381C
381C
1C38
1C30
0E70
0660
07E0
03C0
03C0
0180
0180
0180
0180
0180
0180
0180
0180
0180
0180
0180
ENDCHAR
STARTCHAR 0179
ENCODING 377
SWIDTH 500 0
DWIDTH 17 0
BBX 14 28 2 1
BITMAP
00C0
0180
0200
0000
FFFC
FFFC
0018
0038
0030
0070
0060
00E0
00C0
01C0
0180
0380
0700
0600
0E00
0C00
1C00
1800
3800
3000
7000
6000
FFFC
FFFC
ENDCHAR
STARTCHAR 017A
ENCODING 378
SWIDTH 411 0
DWIDTH 14 0
BBX 11 24 1 0
BITMAP
0180
0380
0300
0600
0C00
0000
0000
FFE0
FFE0
00C0
01C0
0180
0300
0300
0600
0E00
0C00
1800
1800
3000
7000
6000
FFE0
FFE0
ENDCHAR
STARTCHAR 017B
ENCODING 379
SWIDTH 500 0
DWIDTH 17 0
BBX 14 27 2 0
BITMAP
0300
0300
0000
FFFC
FFFC
0018
0038
0030
0070
0060
00E0
00C0
01C0
0180
0380
0300
0600
0E00
0C00
1C00
1800
3800
3000
7000
6000
FFFC
FFFC
ENDCHAR
STARTCHAR 017C
ENCODING 380
SWIDTH 411 0
DWIDTH 14 0
BBX 11 22 1 0
BITMAP
0C00
0C00
0C00
0000
0000
FFE0
FFE0
00C0
01C0
0380
0300
0700
0600
0E00
0C00
1800
3800
3000
7000
6000
FFE0
FFE0
ENDCHAR
STARTCHAR 017D
ENCODING 381
SWIDTH 500 0
DWIDTH 17 0
BBX 14 28 2 1
BITMAP
0C60
0780
0380
0000
FFFC
FFFC
0018
0038
0030
0070
0060
00E0
00C0
01C0
0180
0380
0700
0600
0E00
0C00
1C00
1800
3800
3000
7000
6000
FFFC
FFFC
ENDCHAR
STARTCHAR 017E
ENCODING 382
SWIDTH 411 0
DWIDTH 14 0
BBX 11 24 1 0
BITMAP
3060
18C0
1D80
0F00
0700
0000
0000
FFE0
FFE0
00C0
00C0
0180
0300
0300
0600
0600
0C00
1C00
1800
3000
7000
6000
FFE0
FFE0
ENDCHAR
STARTCHAR 0192
ENCODING 402
SWIDTH 294 0
DWIDTH 10 0
BBX 12 31 -2 -7
BITMAP
03F0
07F0
0700
0600
0600
0600
0600
07F0
07F0
0600
0600
0600
0600
0600
0600
0600
0600
0600
0600
0600
0600
0600
0600
0600
0600
0600
0600
0600
0600
FE00
FC00
ENDCHAR
STARTCHAR 0218
ENCODING 536
SWIDTH 470 0
DWIDTH 16 0
BBX 11 24 2 0
BITMAP
0180
0300
0600
0C00
0800
0000
0000
FFC0
FFE0
0060
0060
0060
0060
3FE0
7FE0
E060
C060
C060
C060
C060
C060
E060
FFE0
7FE0
ENDCHAR
STARTCHAR 0219
ENCODING 537
SWIDTH 500 0
DWIDTH 17 0
BBX 12 31 2 -7
BITMAP
7FF0
FFF0
E000
C000
C000
C000
C000
E000
7000
3800
1C00
0F00
0780
03C0
00E0
0070
0030
0030
0030
0030
0030
0070
FFF0
FFE0
0000
0300
0300
0300
0700
0600
0E00
ENDCHAR
STARTCHAR 02C6
ENCODING 710
SWIDTH 411 0
DWIDTH 14 0
BBX 9 5 3 19
BITMAP
1C00
1C00
3600
6300
C180
ENDCHAR
STARTCHAR 02C7
ENCODING 711
SWIDTH 411 0
DWIDTH 14 0
BBX 9 5 3 19
BITMAP
C180
6300
3600
3E00
1C00
ENDCHAR
STARTCHAR 02D8
ENCODING 728
SWIDTH 411 0
DWIDTH 14 0
BBX 8 5 3 19
BITMAP
C3
C3
C3
FF
7E
ENDCHAR
STARTCHAR 02D9
ENCODING 729
SWIDTH 205 0
DWIDTH 7 0
BBX 2 3 2 19
BITMAP
C0
C0
C0
ENDCHAR
STARTCHAR 02DA
ENCODING 730
SWIDTH 382 0
DWIDTH 13 0
BBX 8 5 3 19
BITMAP
7E
C3
C3
C3
7E
ENDCHAR
STARTCHAR 02DB
ENCODING 731
SWIDTH 352 0
DWIDTH 12 0
BBX 6 7 3 -7
BITMAP
18
60
C0
C0
C0
E0
7C
ENDCHAR
STARTCHAR 02DC
ENCODING 732
SWIDTH 470 0
DWIDTH 16 0
BBX 10 5 3 19
BITMAP
7040
F840
8C40
87C0
8380
ENDCHAR
STARTCHAR 02DD
ENCODING 733
SWIDTH 441 0
DWIDTH 15 0
BBX 9 5 3 19
BITMAP
1180
3300
6200
4600
CC00
ENDCHAR
STARTCHAR 0394
ENCODING 916
SWIDTH 500 0
DWIDTH 17 0
BBX 16 24 0 0
BITMAP
0180
0180
01C0
03C0
03C0
03E0
0660
0660
0660
0E70
0C30
0C30
1C38
1818
1818
1818
300C
300C
300C
700E
6006
6006
FFFF
FFFF
ENDCHAR
STARTCHAR 03A9
ENCODING 937
SWIDTH 529 0
DWIDTH 18 0
BBX 13 24 2 0
BITMAP
7FF0
FFF8
E018
C018
C018
C018
C018
C018
C018
C018
C018
C018
C018
C018
C018
FCF8
7CF0
0CC0
0CC0
0CC0
0CC0
0CC0
FCF8
FCF8
ENDCHAR
STARTCHAR 03C0
ENCODING 960
SWIDTH 500 0
DWIDTH 17 0
BBX 14 18 1 0
BITMAP
3804
7E04
DF84
99FC
98F8
1830
1830
1830
1830
1830
1830
1830
1830
1830
1830
1830
1830
1830
ENDCHAR
STARTCHAR 2013
ENCODING 8211
SWIDTH 470 0
DWIDTH 16 0
BBX 12 2 2 8
BITMAP
FFF0
FFF0
ENDCHAR
STARTCHAR 2014
ENCODING 8212
SWIDTH 735 0
DWIDTH 25 0
BBX 21 2 2 8
BITMAP
FFFFF8
FFFFF8
ENDCHAR
STARTCHAR 2018
ENCODING 8216
SWIDTH 205 0
DWIDTH 7 0
BBX 3 7 2 18
BITMAP
60
60
60
C0
C0
C0
C0
ENDCHAR
STARTCHAR 2019
ENCODING 8217
SWIDTH 205 0
DWIDTH 7 0
BBX 3 7 1 17
BITMAP
60
60
60
60
E0
C0
C0
ENDCHAR
STARTCHAR 201A
ENCODING 8218
SWIDTH 205 0
DWIDTH 7 0
BBX 3 7 1 -5
BITMAP
60
60
60
60
E0
C0
C0
ENDCHAR
STARTCHAR 201C
ENCODING 8220
SWIDTH 352 0
DWIDTH 12 0
BBX 8 7 2 18
BITMAP
63
63
63
C6
C6
C6
C6
ENDCHAR
STARTCHAR 201D
ENCODING 8221
SWIDTH 352 0
DWIDTH 12 0
BBX 9 7 1 17
BITMAP
6180
6180
6180
6180
E300
C300
C700
ENDCHAR
STARTCHAR 201E
ENCODING 8222
SWIDTH 352 0
DWIDTH 12 0
BBX 9 7 1 -5
BITMAP
6180
6180
6180
6180
E300
C300
C300
ENDCHAR
STARTCHAR 2020
ENCODING 8224
SWIDTH 470 0
DWIDTH 16 0
BBX 16 24 0 0
BITMAP
0180
0180
0180
0180
0180
0180
0180
FFFF
FFFF
0180
0180
0180
0180
0180
0180
0180
0180
0180
0180
0180
0180
0180
0180
0180
ENDCHAR
STARTCHAR 2021
ENCODING 8225
SWIDTH 529 0
DWIDTH 18 0
BBX 16 24 1 0
BITMAP
0180
0180
0180
0180
0180
0180
0180
FFFF
FFFF
0180
0180
0180
0180
0180
0180
FFFF
FFFF
0180
0180
0180
0180
0180
0180
0180
ENDCHAR
STARTCHAR 2022
ENCODING 8226
SWIDTH 441 0
DWIDTH 15 0
BBX 10 15 2 1
BITMAP
7F80
FFC0
FFC0
FFC0
FFC0
FFC0
FFC0
FFC0
FFC0
FFC0
FFC0
FFC0
FFC0
FFC0
7F80
ENDCHAR
STARTCHAR 2026
ENCODING 8230
SWIDTH 676 0
DWIDTH 23 0
BBX 18 3 2 0
BITMAP
C0C0C0
C0C0C0
C0C0C0
ENDCHAR
STARTCHAR 2030
ENCODING 8240
SWIDTH 882 0
DWIDTH 30 0
BBX 26 24 2 0
BITMAP
7C060000
FE0E0000
C60C0000
C61C0000
C6180000
C6380000
C6300000
C6700000
C6600000
C6E00000
FEC00000
7DC00000
019E0F80
03BF9FC0
036398C0
076198C0
066198C0
066198C0
0C6198C0
0C6198C0
186198C0
186198C0
307F9FC0
303F0F80
ENDCHAR
STARTCHAR 2039
ENCODING 8249
SWIDTH 352 0
DWIDTH 12 0
BBX 9 14 1 3
BITMAP
0180
0380
0700
1E00
3800
7000
E000
E000
7000
3C00
1E00
0700
0380
0180
ENDCHAR
STARTCHAR 203A
ENCODING 8250
SWIDTH 352 0
DWIDTH 12 0
BBX 9 14 1 3
BITMAP
C000
E000
7000
3C00
1E00
0700
0380
0380
0700
0E00
3C00
7000
E000
C000
ENDCHAR
STARTCHAR 2044
ENCODING 8260
SWIDTH 441 0
DWIDTH 15 0
BBX 14 24 0 0
BITMAP
000C
001C
0018
0038
0030
0070
0060
00E0
00C0
01C0
0180
0380
0300
0700
0600
0E00
0C00
1C00
1800
3800
3000
7000
6000
E000
ENDCHAR
STARTCHAR 20AC
ENCODING 8364
SWIDTH 470 0
DWIDTH 16 0
BBX 13 24 2 0
BITMAP
3FF8
7FF8
7000
6000
6000
6000
6000
6000
FFC0
FFC0
6000
6000
6000
6000
FFC0
6000
6000
6000
6000
6000
6000
7000
7FF8
3FF8
ENDCHAR
STARTCHAR 2122
ENCODING 8482
SWIDTH 529 0
DWIDTH 18 0
BBX 14 11 2 16
BITMAP
8000
8000
E7BC
8444
8444
8444
8444
8444
8444
8444
6444
ENDCHAR
STARTCHAR 2202
ENCODING 8706
SWIDTH 529 0
DWIDTH 18 0
BBX 12 24 3 1
BITMAP
6000
3000
1800
0C00
0600
0300
0380
01C0
00E0
0070
7FF0
FFF0
C030
C030
C030
C030
C030
C030
C030
C030
C030
E070
FFF0
7FE0
ENDCHAR
STARTCHAR 220F
ENCODING 8719
SWIDTH 558 0
DWIDTH 19 0
BBX 13 24 3 0
BITMAP
FFF8
FFF8
C018
C018
C018
C018
C018
C018
C018
C018
C018
C018
C018
C018
C018
C018
C018
C018
C018
C018
C018
C018
C018
C018
ENDCHAR
STARTCHAR 2211
ENCODING 8721
SWIDTH 500 0
DWIDTH 17 0
BBX 14 24 2 0
BITMAP
FFFC
FFFC
6000
7000
3000
3800
1C00
1C00
0E00
0E00
0700
0700
0700
0700
0E00
0E00
1C00
1800
3800
3000
7000
6000
FFFC
FFFC
ENDCHAR
STARTCHAR 221A
ENCODING 8730
SWIDTH 676 0
DWIDTH 23 0
BBX 20 24 2 0
BITMAP
000070
000060
0000E0
0000C0
0001C0
000180
000380
FE0300
FE0700
060600
060E00
060C00
061C00
061800
063800
063000
067000
066000
06E000
06C000
07C000
078000
078000
070000
ENDCHAR
STARTCHAR 221E
ENCODING 8734
SWIDTH 735 0
DWIDTH 25 0
BBX 21 11 2 7
BITMAP
7FFFF0
FFFFF8
C07018
C03018
C03018
C03018
C03018
C03018
C07018
FFFFF8
7FE7F0
ENDCHAR
STARTCHAR 222B
ENCODING 8747
SWIDTH 264 0
DWIDTH 9 0
BBX 12 31 -2 -7
BITMAP
03F0
07F0
0700
0600
0600
0600
0600
0600
0600
0600
0600
0600
0600
0600
0600
0600
0600
0600
0600
0600
0600
0600
0600
0600
0600
0600
0600
0600
0600
FE00
FC00
ENDCHAR
STARTCHAR 2248
ENCODING 8776
SWIDTH 441 0
DWIDTH 15 0
BBX 12 12 2 5
BITMAP
3810
7C10
CE10
8730
83E0
81E0
0000
7810
FC10
CF30
83F0
81E0
ENDCHAR
STARTCHAR 2260
ENCODING 8800
SWIDTH 470 0
DWIDTH 16 0
BBX 12 17 2 2
BITMAP
0030
0060
0040
00C0
FFF0
FFF0
0300
0300
0600
0400
0C00
FFF0
FFF0
3000
2000
6000
4000
ENDCHAR
STARTCHAR 2264
ENCODING 8804
SWIDTH 470 0
DWIDTH 16 0
BBX 12 19 2 0
BITMAP
0010
0070
00E0
0380
0F00
3C00
F000
E000
F800
3C00
0F00
03C0
00E0
0030
0010
0000
0000
FFF0
FFF0
ENDCHAR
STARTCHAR 2265
ENCODING 8805
SWIDTH 470 0
DWIDTH 16 0
BBX 12 19 2 0
BITMAP
8000
E000
7000
3C00
0F00
03C0
01F0
0070
01F0
03C0
0F00
3C00
7000
C000
8000
0000
0000
FFF0
FFF0
ENDCHAR
STARTCHAR 25CA
ENCODING 9674
SWIDTH 500 0
DWIDTH 17 0
BBX 14 31 1 -7
BITMAP
0300
0380
0780
0780
0FC0
0EC0
0CE0
1CE0
1860
3870
3830
3038
7038
6018
E01C
E01C
E01C
6018
7038
7030
3870
3870
1860
1CE0
1CC0
0CC0
0FC0
0780
0780
0700
0300
ENDCHAR
STARTCHAR F6C3
ENCODING 63171
SWIDTH 205 0
DWIDTH 7 0
BBX 3 6 2 -7
BITMAP
60
60
60
E0
C0
C0
ENDCHAR
STARTCHAR F6C9
ENCODING 63177
SWIDTH 470 0
DWIDTH 16 0
BBX 4 3 8 25
BITMAP
30
60
C0
ENDCHAR
STARTCHAR F6CA
ENCODING 63178
SWIDTH 411 0
DWIDTH 14 0
BBX 7 3 4 25
BITMAP
C6
6C
38
ENDCHAR
STARTCHAR F6CB
ENCODING 63179
SWIDTH 352 0
DWIDTH 12 0
BBX 7 2 3 26
BITMAP
C6
C6
ENDCHAR
STARTCHAR F6CE
ENCODING 63182
SWIDTH 323 0
DWIDTH 11 0
BBX 4 3 4 25
BITMAP
C0
60
30
ENDCHAR
STARTCHAR F6CF
ENCODING 63183
SWIDTH 441 0
DWIDTH 15 0
BBX 9 3 3 25
BITMAP
3180
6200
C400
ENDCHAR
STARTCHAR F6D0
ENCODING 63184
SWIDTH 382 0
DWIDTH 13 0
BBX 7 2 3 26
BITMAP
FE
FE
ENDCHAR
STARTCHAR FB01
ENCODING 64257
SWIDTH 470 0
DWIDTH 16 0
BBX 11 24 2 0
BITMAP
3FE0
FFE0
E000
C000
C000
C000
C000
FFE0
FFE0
C060
C060
C060
C060
C060
C060
C060
C060
C060
C060
C060
C060
C060
C060
C060
ENDCHAR
STARTCHAR FB02
ENCODING 64258
SWIDTH 470 0
DWIDTH 16 0
BBX 11 24 2 0
BITMAP
3C60
FC60
E060
C060
C060
C060
C060
FFE0
FFE0
C060
C060
C060
C060
C060
C060
C060
C060
C060
C060
C060
C060
C060
C060
C060
ENDCHAR
ENDFONT
